<svg viewBox="0 0 330 200" xmlns="http://www.w3.org/2000/svg"><g><g><g><g><g><line x1="58" y1="178" x2="53" y2="178" style="visibility: inherit;" fill="rgb(0, 0, 0)" stroke="rgb(204, 204, 204)" stroke-width="1px"></line><line x1="58" y1="160.2" x2="53" y2="160.2" style="visibility: inherit;" fill="rgb(0, 0, 0)" stroke="rgb(204, 204, 204)" stroke-width="1px"></line><line x1="58" y1="142.4" x2="53" y2="142.4" style="visibility: inherit;" fill="rgb(0, 0, 0)" stroke="rgb(204, 204, 204)" stroke-width="1px"></line><line x1="58" y1="124.6" x2="53" y2="124.6" style="visibility: inherit;" fill="rgb(0, 0, 0)" stroke="rgb(204, 204, 204)" stroke-width="1px"></line><line x1="58" y1="106.8" x2="53" y2="106.8" style="visibility: inherit;" fill="rgb(0, 0, 0)" stroke="rgb(204, 204, 204)" stroke-width="1px"></line><line x1="58" y1="89" x2="53" y2="89" style="visibility: inherit;" fill="rgb(0, 0, 0)" stroke="rgb(204, 204, 204)" stroke-width="1px"></line><line x1="58" y1="71.2" x2="53" y2="71.2" style="visibility: inherit;" fill="rgb(0, 0, 0)" stroke="rgb(204, 204, 204)" stroke-width="1px"></line><line x1="58" y1="53.400000000000006" x2="53" y2="53.400000000000006" style="visibility: inherit;" fill="rgb(0, 0, 0)" stroke="rgb(204, 204, 204)" stroke-width="1px"></line><line x1="58" y1="35.60000000000002" x2="53" y2="35.60000000000002" style="visibility: inherit;" fill="rgb(0, 0, 0)" stroke="rgb(204, 204, 204)" stroke-width="1px"></line><line x1="58" y1="17.799999999999983" x2="53" y2="17.799999999999983" style="visibility: inherit;" fill="rgb(0, 0, 0)" stroke="rgb(204, 204, 204)" stroke-width="1px"></line><line x1="58" y1="0" x2="53" y2="0" style="visibility: inherit;" fill="rgb(0, 0, 0)" stroke="rgb(204, 204, 204)" stroke-width="1px"></line></g><g transform="translate(48, 0)"><text x="0" y="178" dx="0em" dy="0.3em" style="text-anchor: end; visibility: hidden; font-family: &quot;Helvetica Neue&quot;, sans-serif; font-size: 12px; font-weight: 200;" fill="rgb(50, 49, 63)" stroke="none" stroke-width="1px">-0.1</text><text x="0" y="160.2" dx="0em" dy="0.3em" style="text-anchor: end; visibility: inherit; font-family: &quot;Helvetica Neue&quot;, sans-serif; font-size: 12px; font-weight: 200;" fill="rgb(50, 49, 63)" stroke="none" stroke-width="1px">0</text><text x="0" y="142.4" dx="0em" dy="0.3em" style="text-anchor: end; visibility: hidden; font-family: &quot;Helvetica Neue&quot;, sans-serif; font-size: 12px; font-weight: 200;" fill="rgb(50, 49, 63)" stroke="none" stroke-width="1px">0.1</text><text x="0" y="124.6" dx="0em" dy="0.3em" style="text-anchor: end; visibility: inherit; font-family: &quot;Helvetica Neue&quot;, sans-serif; font-size: 12px; font-weight: 200;" fill="rgb(50, 49, 63)" stroke="none" stroke-width="1px">0.2</text><text x="0" y="106.8" dx="0em" dy="0.3em" style="text-anchor: end; visibility: hidden; font-family: &quot;Helvetica Neue&quot;, sans-serif; font-size: 12px; font-weight: 200;" fill="rgb(50, 49, 63)" stroke="none" stroke-width="1px">0.3</text><text x="0" y="89" dx="0em" dy="0.3em" style="text-anchor: end; visibility: inherit; font-family: &quot;Helvetica Neue&quot;, sans-serif; font-size: 12px; font-weight: 200;" fill="rgb(50, 49, 63)" stroke="none" stroke-width="1px">0.4</text><text x="0" y="71.2" dx="0em" dy="0.3em" style="text-anchor: end; visibility: hidden; font-family: &quot;Helvetica Neue&quot;, sans-serif; font-size: 12px; font-weight: 200;" fill="rgb(50, 49, 63)" stroke="none" stroke-width="1px">0.5</text><text x="0" y="53.400000000000006" dx="0em" dy="0.3em" style="text-anchor: end; visibility: inherit; font-family: &quot;Helvetica Neue&quot;, sans-serif; font-size: 12px; font-weight: 200;" fill="rgb(50, 49, 63)" stroke="none" stroke-width="1px">0.6</text><text x="0" y="35.60000000000002" dx="0em" dy="0.3em" style="text-anchor: end; visibility: hidden; font-family: &quot;Helvetica Neue&quot;, sans-serif; font-size: 12px; font-weight: 200;" fill="rgb(50, 49, 63)" stroke="none" stroke-width="1px">0.7</text><text x="0" y="17.799999999999983" dx="0em" dy="0.3em" style="text-anchor: end; visibility: inherit; font-family: &quot;Helvetica Neue&quot;, sans-serif; font-size: 12px; font-weight: 200;" fill="rgb(50, 49, 63)" stroke="none" stroke-width="1px">0.8</text><text x="0" y="0" dx="0em" dy="0.3em" style="text-anchor: end; visibility: hidden; font-family: &quot;Helvetica Neue&quot;, sans-serif; font-size: 12px; font-weight: 200;" fill="rgb(50, 49, 63)" stroke="none" stroke-width="1px">0.9</text></g><line x1="58" y1="0" x2="58" y2="178" fill="rgb(0, 0, 0)" stroke="rgb(204, 204, 204)" stroke-width="1px"></line></g></g><g transform="translate(58, 0)" clip-path="url(#clip_0)"><clipPath id="clip_0"><rect width="272" height="178"></rect></clipPath><g><g><g><line x1="0" y1="0" x2="0" y2="178" fill="rgb(0, 0, 0)" stroke="rgb(60, 60, 60)" stroke-width="1px" opacity="0.25"></line><line x1="22.666666666666664" y1="0" x2="22.666666666666664" y2="178" fill="rgb(0, 0, 0)" stroke="rgb(60, 60, 60)" stroke-width="1px" opacity="0.25"></line><line x1="45.33333333333333" y1="0" x2="45.33333333333333" y2="178" fill="rgb(0, 0, 0)" stroke="rgb(60, 60, 60)" stroke-width="1px" opacity="0.25"></line><line x1="68" y1="0" x2="68" y2="178" fill="rgb(0, 0, 0)" stroke="rgb(60, 60, 60)" stroke-width="1px" opacity="0.25"></line><line x1="90.66666666666666" y1="0" x2="90.66666666666666" y2="178" fill="rgb(0, 0, 0)" stroke="rgb(60, 60, 60)" stroke-width="1px" opacity="0.25"></line><line x1="113.33333333333334" y1="0" x2="113.33333333333334" y2="178" fill="rgb(0, 0, 0)" stroke="rgb(60, 60, 60)" stroke-width="1px" opacity="0.25"></line><line x1="136" y1="0" x2="136" y2="178" fill="rgb(0, 0, 0)" stroke="rgb(60, 60, 60)" stroke-width="1px" opacity="0.25"></line><line x1="158.66666666666669" y1="0" x2="158.66666666666669" y2="178" fill="rgb(0, 0, 0)" stroke="rgb(60, 60, 60)" stroke-width="1px" opacity="0.25"></line><line x1="181.33333333333331" y1="0" x2="181.33333333333331" y2="178" fill="rgb(0, 0, 0)" stroke="rgb(60, 60, 60)" stroke-width="1px" opacity="0.25"></line><line x1="204" y1="0" x2="204" y2="178" fill="rgb(0, 0, 0)" stroke="rgb(60, 60, 60)" stroke-width="1px" opacity="0.25"></line><line x1="226.66666666666669" y1="0" x2="226.66666666666669" y2="178" fill="rgb(0, 0, 0)" stroke="rgb(60, 60, 60)" stroke-width="1px" opacity="0.25"></line><line x1="249.33333333333331" y1="0" x2="249.33333333333331" y2="178" fill="rgb(0, 0, 0)" stroke="rgb(60, 60, 60)" stroke-width="1px" opacity="0.25"></line><line x1="272" y1="0" x2="272" y2="178" fill="rgb(0, 0, 0)" stroke="rgb(60, 60, 60)" stroke-width="1px" opacity="0.25"></line></g><g><line x1="0" y1="178" x2="272" y2="178" fill="rgb(0, 0, 0)" stroke="rgb(60, 60, 60)" stroke-width="1px" opacity="0.25"></line><line x1="0" y1="160.2" x2="272" y2="160.2" fill="rgb(0, 0, 0)" stroke="rgb(60, 60, 60)" stroke-width="1px" opacity="0.25"></line><line x1="0" y1="142.4" x2="272" y2="142.4" fill="rgb(0, 0, 0)" stroke="rgb(60, 60, 60)" stroke-width="1px" opacity="0.25"></line><line x1="0" y1="124.6" x2="272" y2="124.6" fill="rgb(0, 0, 0)" stroke="rgb(60, 60, 60)" stroke-width="1px" opacity="0.25"></line><line x1="0" y1="106.8" x2="272" y2="106.8" fill="rgb(0, 0, 0)" stroke="rgb(60, 60, 60)" stroke-width="1px" opacity="0.25"></line><line x1="0" y1="89" x2="272" y2="89" fill="rgb(0, 0, 0)" stroke="rgb(60, 60, 60)" stroke-width="1px" opacity="0.25"></line><line x1="0" y1="71.2" x2="272" y2="71.2" fill="rgb(0, 0, 0)" stroke="rgb(60, 60, 60)" stroke-width="1px" opacity="0.25"></line><line x1="0" y1="53.400000000000006" x2="272" y2="53.400000000000006" fill="rgb(0, 0, 0)" stroke="rgb(60, 60, 60)" stroke-width="1px" opacity="0.25"></line><line x1="0" y1="35.60000000000002" x2="272" y2="35.60000000000002" fill="rgb(0, 0, 0)" stroke="rgb(60, 60, 60)" stroke-width="1px" opacity="0.25"></line><line x1="0" y1="17.799999999999983" x2="272" y2="17.799999999999983" fill="rgb(0, 0, 0)" stroke="rgb(60, 60, 60)" stroke-width="1px" opacity="0.25"></line><line x1="0" y1="0" x2="272" y2="0" fill="rgb(0, 0, 0)" stroke="rgb(60, 60, 60)" stroke-width="1px" opacity="0.25"></line></g></g></g><g><g><line x1="0" y1="160.2" x2="272" y2="160.2" fill="rgb(0, 0, 0)" stroke="rgb(153, 153, 153)" stroke-width="1.5px"></line></g></g><g><g><line x1="22.666666666666664" y1="0" x2="22.666666666666664" y2="178" fill="rgb(0, 0, 0)" stroke="rgb(153, 153, 153)" stroke-width="1.5px"></line></g></g><g><g><g><g><g><path stroke="rgb(255, 112, 67)" stroke-width="2px" d="M23.029333333333334,148.03861452341079L23.618666666666666,138.39750942645512L23.890666666666668,140.724052538941L24.616,120.28670939447116L24.706666666666667,129.46468732294204L24.842666666666666,108.75840010501243L24.93333333333333,114.67320631361923L25.205333333333332,121.35433978967629L25.34133333333333,126.21803002154618L26.02133333333333,132.09785457195255L26.157333333333334,120.61199046603647L26.384,110.79910481238197L26.746666666666666,115.19084290517335L27.064,117.1024110352464L27.426666666666666,124.10270123018923L27.562666666666665,126.64843866344563L27.608,121.72083373163642L27.925333333333334,124.79296685779397L28.514666666666667,114.71034038904139L29.104,122.30317240571904L29.602666666666668,113.7226154306677L29.82933333333333,119.50025646303786L29.965333333333334,128.03067434342654L30.37333333333333,121.9287897569275L30.418666666666667,119.42435184900872L30.872,108.76236240256736L31.098666666666666,102.37658610098256L31.189333333333334,102.759320019351L31.234666666666666,106.31360782891767L31.416,111.56333352912567L31.778666666666666,112.86703763747344L32.141333333333336,116.19921758242621L32.18666666666667,108.02326334944215L32.413333333333334,112.84572109541882L32.912,114.74961688716368L33.184,121.31511443701591L33.410666666666664,120.6658821549179L33.54666666666667,110.84175293627295L34.090666666666664,108.00440106478158L34.36266666666666,113.8997466391554L34.589333333333336,104.50765798523318L34.906666666666666,106.69781210408205L35.088,113.29628507542594L35.178666666666665,111.49615620437403L36.04,108.86004154185036L36.266666666666666,115.8295658302945L36.312000000000005,114.7182814024309L36.538666666666664,117.24441203312215L36.76533333333333,101.97800588084588L36.856,102.12386232234198L37.218666666666664,91.27294251992771L37.264,89.59031002402921L37.58133333333333,93.74758188653416L37.76266666666667,99.05145152211604L38.17066666666667,87.86263216508422L38.53333333333333,100.08484792155892L39.25866666666667,90.1937315403064L39.44,83.41636496637686L39.711999999999996,76.77933852736575L39.89333333333333,88.24195990123523L39.983999999999995,74.08837126183593L41.888,69.45817056646632L41.93333333333334,74.26807228506804L42.024,72.8661734636262L42.296,83.47012388604031L42.704,78.91195758900771L42.794666666666664,80.70443501939334L42.84,81.43080733433582L42.976,86.18792036487658L43.248,75.19489988362777L43.656,85.11477461072272L43.792,70.43315895225977L43.83733333333333,71.08133702815371L44.29066666666667,86.89354192439234L45.06133333333333,86.49446735243887L45.152,81.0074225966801L45.78666666666667,83.32585046599878L46.01333333333333,71.19488751832831L46.104000000000006,73.74472575681534L46.24,88.38630638728264L46.602666666666664,85.91801888563874L46.87466666666667,84.6702842365899L46.965333333333334,81.89062281906098L47.10133333333333,76.90905147426705L47.373333333333335,78.09870718737223L47.599999999999994,86.74658166912272L48.053333333333335,88.9348044422007L48.32533333333333,82.26004024029314L48.59733333333333,91.58260839472165L48.778666666666666,83.93515459905205L49.05066666666667,86.39247416316772L49.141333333333336,83.11153489830862L49.18666666666667,83.45959951571908L49.27733333333333,69.7111178617361L49.367999999999995,65.44043499407074L49.413333333333334,82.27301031579489L49.64,70.15074541813848L49.68533333333333,85.48963771380276L50.093333333333334,81.88184033675105L50.36533333333333,79.55441102084869L50.456,80.95385107638982L50.68266666666666,73.33542764045488L50.909333333333336,74.43386744862104L51,74.82695625999933L51.544,73.54217584762752L51.861333333333334,63.60617054336666L51.906666666666666,63.673896416625865L51.99733333333334,70.90374008064813L52.088,74.64073201058189L52.13333333333334,88.12580519746653L52.224000000000004,79.24942408833188L52.768,86.24528391673236L52.904,85.6957604234875L53.08533333333333,76.9240819350897L53.221333333333334,82.93424711495302L53.35733333333333,83.4708298557623L53.538666666666664,96.74297406754266L53.584,100.4927476807553L53.76533333333333,98.73422362958952L53.992000000000004,94.74815304260062L54.49066666666667,85.27016784343633L54.672000000000004,96.38937033465459L54.80800000000001,94.53337449767255L55.17066666666667,83.37465986999206L55.352,84.94953130644234L55.488,88.6431639152961L55.53333333333333,79.62017216703623L55.57866666666667,67.09075615400407L55.895999999999994,71.18673794460861L56.168,83.17322746668307L56.25866666666667,76.29865630000704L56.303999999999995,66.30274591595348L56.48533333333333,49.547752561064186L56.66666666666667,52.64645669866506L56.848,50.53794694266968L56.89333333333333,54.7220329985452L57.07466666666667,67.82778143380065L57.48266666666667,60.73349220517878L57.664,66.72864501443914L57.70933333333333,60.461164841123974L57.75466666666667,73.06882179477832L57.845333333333336,75.62713592717814L57.89066666666667,87.74206780916965L58.16266666666667,89.54716810081312L58.344,69.65950731307814L58.38933333333333,88.52078214895626L58.48,91.00456064684879L58.57066666666666,87.96001206896837L58.70666666666666,82.11886702530597L58.752,90.66568007600013L58.797333333333334,100.16949689980132L58.842666666666666,106.73797941629738L58.97866666666666,93.42170816078597L59.16,89.13516411595012L59.38666666666666,90.76482698318075L59.432,94.93051862947289L59.477333333333334,104.59625877302895L59.74933333333334,85.01949331517042L60.52,72.47080251290203L60.70133333333334,80.33216417333293L60.792,73.38940441345875L61.01866666666667,60.69768589214654L62.10666666666667,74.9638231324186L62.19733333333333,62.4676799011083L62.424,68.71063015575739L62.51466666666667,80.81806494204305L62.696000000000005,88.22117776923828L62.78666666666667,78.5959667425546L63.14933333333333,82.87205570082577L63.42133333333333,67.83272077903858L63.602666666666664,74.35854736493117L63.919999999999995,59.23843683186756L64.01066666666667,67.32616864692311L64.28266666666667,65.68785133656661L64.37333333333333,52.033454158625105L64.50933333333333,54.77185771922336L64.64533333333333,48.78620160818568L65.008,49.66667290395847L65.05333333333333,45.3683734543896L65.18933333333334,66.28966508619676L65.50666666666667,69.58396249267638L65.64266666666667,54.82999734041816L66.05066666666667,48.49796238937L66.232,48.35703831223569L66.368,57.15188925751664L66.41333333333334,74.39577543461519L66.82133333333333,75.83938365902081L66.86666666666666,65.29754618015492L67.048,56.346262117315675L67.13866666666667,50.21232628987504L67.184,50.21507674421673L67.36533333333334,55.287010798355496L67.41066666666666,56.03039169966472L67.54666666666667,50.24608844671738L67.592,72.10500434412266L67.95466666666667,77.47848212651172L68.136,73.86617426401996L68.22666666666667,68.98272127045779L68.31733333333332,72.66162432969996L68.36266666666667,65.13285899522322L68.77066666666667,53.095177602334076L68.90666666666667,63.74236264518275L69.26933333333334,50.66163528732514L69.36,41.67599428199057L69.58666666666667,40.53439237810014L69.81333333333333,52.52231694040515L70.13066666666667,70.86105331897369L70.72,59.7643109595176L70.992,55.515575908521924L71.128,51.62290838090816L71.21866666666666,63.2482846886078L71.4,54.67895698307446L71.58133333333333,51.83068444535327L71.672,58.44742687440791L71.89866666666666,77.02429267557032L71.944,66.06926963103712L71.98933333333333,60.33709792068757L72.352,67.29582219708617L72.62400000000001,51.98716090944336L72.80533333333334,44.897158949586895L72.85066666666665,44.000937173474654L72.896,32.54996158918587L73.304,44.83807554039868L73.53066666666666,46.4059601408656L74.16533333333334,51.33494673792762L74.256,63.05366611142864L75.16266666666667,56.968704680637046L75.20800000000001,62.385545291843556L75.38933333333334,68.79029191845446L75.43466666666666,58.090299954245495L75.48,51.75070985758089L76.296,46.25849768035238L76.52266666666667,62.4912470120443L76.83999999999999,65.05038915400058L76.88533333333334,58.2387751478542L77.15733333333334,82.62254510621092L77.24799999999999,90.18504109370308L77.47466666666666,79.97182674281929L77.56533333333334,67.76180293251306L78.65333333333334,64.85632435248549L78.744,69.60955514147871L78.83466666666666,74.55183363122681L79.19733333333333,64.59361276816642L79.33333333333334,60.17804409829489L79.696,51.586661439876565L79.832,76.56415337090331L79.96799999999999,63.20597711308584L80.55733333333333,60.314198627592404L80.87466666666667,57.68768906321465L81.14666666666668,70.83519477328832L81.41866666666667,66.09023493834772L81.464,69.10293212646249L81.73599999999999,62.46451982613168L82.18933333333332,72.56569191531494L82.416,68.67601189558276L82.46133333333333,74.63116173165432L82.59733333333332,81.14120794806868L82.86933333333333,66.80056441480589L82.96,83.09798055253069L83.096,78.37729993326212L83.232,68.92881651461195L83.368,74.2049531219744L83.41333333333333,88.00097060874921L84.22933333333333,78.8657061507547L84.90933333333332,62.35118665284837L85.58933333333333,61.769934905825394L85.72533333333332,56.45025394872822L85.77066666666667,60.215617461314295L85.86133333333333,50.77001591270063L85.90666666666667,50.18987792800898L86.85866666666668,45.10828316518328L86.904,46.63376716303995L87.13066666666667,49.82337252276284L87.26666666666668,47.64503785245145L87.44800000000001,60.69027491972025L87.53866666666667,64.45853866326597L87.72,55.982396060316546L87.90133333333333,66.20219992452891L88.08266666666665,78.80331163879792L89.21600000000001,83.98989171830009L89.26133333333333,67.23640787571522L89.76,60.053016350856225L90.12266666666666,49.500078535239425L90.168,50.93158642702093L90.304,45.52344364422993L90.39466666666667,50.51414546004864L90.44,54.030233685986715L90.848,50.340793604169235L91.16533333333334,45.37833216949096L91.84533333333333,61.77142737272334L91.89066666666666,47.7724245754473L92.02666666666666,42.892436579778945L92.888,37.33362821893357L93.11466666666666,43.993699211781006L93.16000000000001,39.659303745565694L93.25066666666666,47.96436751194457L93.568,45.24895676195047L93.88533333333334,69.81301275579143L93.93066666666667,62.67104066543325L94.33866666666667,83.63247239858518L94.52,82.42868257792539L94.61066666666666,88.23241728490306L94.79199999999999,77.78789335810193L95.19999999999999,80.56739258931991L95.51733333333334,75.64547776772864L95.56266666666667,90.01764026949338L95.78933333333333,80.78560582414012L96.152,80.23647187153311L96.56,74.95619712964155L96.60533333333333,77.78824902267364L96.78666666666666,89.29622396666663L97.01333333333334,97.23840755272136L97.14933333333335,75.05493281320359L97.24,79.53432494580956L97.37599999999999,74.94630696743944L97.512,66.2542005693133L97.69333333333334,61.62611807036657L98.056,56.547734632033595L98.41866666666667,60.73840467775669L98.6,57.32825904046764L98.73599999999999,62.699712060781195L98.78133333333334,54.42479984012866L99.05333333333334,64.6450766911822L99.09866666666667,74.22190414858123L99.46133333333333,87.55424959439853L99.64266666666667,89.85251944747347L99.688,79.96156503192805L99.73333333333332,74.65529367100666L99.824,71.06015919373321L99.96,64.41747218388159L100.27733333333333,62.5009535635007L100.32266666666666,64.32910083417853L100.68533333333333,56.752155771008304L100.73066666666666,59.10258365887297L101.13866666666667,50.69984766037629L101.32,50.858268074597405L101.41066666666667,49.39262729132466L101.54666666666667,51.99722319808687L101.77333333333333,43.37918145540371L101.81866666666667,34.65322834285706L101.90933333333332,48.34200097171427L101.95466666666667,42.606751459364375L102,41.32118163298233L102.22666666666667,44.04784374419077L102.86133333333333,48.61376588761874L103.26933333333334,61.108256830960414L103.54133333333333,49.55875452400829L103.85866666666668,41.7056272629963L103.904,33.532146775940845L104.312,28.993849792250188L104.62933333333334,34.920726302909515L105.03733333333334,37.694273045600255L105.17333333333333,45.06822930466015L105.49066666666666,41.144900939381984L105.58133333333333,40.37675051364212L105.76266666666666,44.04380082216724L106.21600000000001,41.2691924263772L106.26133333333333,42.77709668036235L106.39733333333334,33.60771029898606L106.62400000000001,34.10610981430892L106.80533333333334,32.70386611506717L107.39466666666667,26.80655350230512L107.48533333333333,36.52226200624858L107.53066666666666,36.09006866310281L107.80266666666667,33.172616657205396L107.848,35.46628748310329L107.89333333333333,39.52109143785978L107.98400000000001,35.52532107635241L108.61866666666666,39.25792508599673L109.43466666666666,41.976629053273825L109.70666666666666,33.97189301179958L110.024,45.357885699601496L110.296,53.588996704917406L110.47733333333333,48.84789825099949L110.568,44.841594790850365L110.65866666666666,44.59048916159611L110.93066666666667,42.526756065981886L111.06666666666666,40.98877384581692L111.15733333333334,56.500857379571L111.29333333333334,58.669505839465L111.42933333333333,51.06732787161043L111.56533333333334,48.143044684796735L111.97333333333334,48.28726271496663L112.064,56.31031307262498L112.60799999999999,63.48682728371314L112.65333333333334,58.08250966049913L112.69866666666667,65.79591485456358L113.33333333333334,52.92103466163687L113.51466666666667,65.86723975155002L113.696,61.61259243681128L113.87733333333334,60.59589990395098L113.92266666666667,59.22215400800792L114.05866666666667,52.687705057947525L114.14933333333335,44.415592315244936L114.24,46.91315584910396L114.60266666666666,54.30333217354979L114.69333333333334,46.48850216734169L114.82933333333334,41.04842923116303L114.96533333333333,36.05551439348079L115.10133333333334,35.64403486672583L115.192,41.162495020886126L115.328,43.87089319465491L115.464,44.29158336196082L116.18933333333332,38.08243246833564L116.50666666666667,33.823613449015L116.73333333333332,35.849161174200106L116.77866666666667,38.991068997088774L116.824,36.12695020019953L116.91466666666668,28.67735638429542L116.96,24.768752942366746L117.05066666666667,41.114178117850315L117.14133333333332,44.47661729896063L117.32266666666666,41.33155032062393L117.504,38.79239641163056L117.73066666666666,32.13801536411026L117.82133333333333,26.42955404926076L118.13866666666667,29.075956982462827L118.22933333333333,44.15438322374888L118.27466666666668,42.51290920938453L118.50133333333332,48.89979463157013L118.68266666666668,45.62650908625429L118.90933333333332,40.62729047824979L119,46.08611527563991L119.04533333333333,46.46546662659L119.49866666666668,42.19116040030204L119.544,39.880752462774836L119.72533333333332,39.126345535012945L119.86133333333333,42.31688685233988L119.99733333333333,44.25070033771047L120.04266666666668,34.4615774533886L120.17866666666667,37.1017381580391L120.224,40.42909332299766L120.31466666666667,39.54326533106416L120.54133333333333,47.29127529189691L120.58666666666667,59.228767378678924L120.904,52.49267774837077L120.94933333333333,53.10380402795667L121.13066666666667,48.053866452028046L121.22133333333333,38.066148508067045L121.312,35.29871715570184L121.49333333333333,30.675377242800835L121.94666666666666,31.724915241534347L122.03733333333334,31.24236357155553L122.128,30.120473790318812L122.17333333333333,35.79754233712438L122.35466666666666,32.98026542006335L122.49066666666666,41.07133985548205L122.85333333333332,42.941222404642616L123.03466666666667,41.612497500234014L123.66933333333333,44.13992305199395L123.85066666666665,39.80925280784436L123.94133333333333,61.69374072191066L124.168,48.22534225704669L124.21333333333334,41.53731676010719L124.304,45.27631521940944L124.39466666666667,39.28790260287104L124.44,37.81026996276563L124.53066666666666,41.55876028864222L124.62133333333334,53.007927108080096L124.66666666666666,49.673607385431126L124.98400000000001,49.68472573943234L125.12,53.575275953895954L125.34666666666666,41.761888457916655L125.89066666666666,41.17510497043739L126.072,44.39764018044718L126.20800000000001,47.650306186809445L126.66133333333333,42.46219519061995L126.93333333333334,37.639012275955224L126.97866666666667,37.85694560670393L127.06933333333333,30.311065506989394L127.20533333333333,23.600502210896025L127.34133333333334,33.54431230397273L127.38666666666667,31.771965332014588L127.432,38.34324476134964L127.88533333333334,34.35571443162067L127.93066666666667,30.561316927090417L127.976,25.458368613082087L128.06666666666666,24.711860562436925L128.61066666666667,26.35415947090152L128.656,23.10901223850817L128.70133333333334,21.995371326092197L128.74666666666667,27.4406738209681L129.10933333333332,25.377268418187242L129.51733333333334,30.781146703887202L130.28799999999998,34.24504133324422L130.92266666666666,34.08316180885103L131.10399999999998,36.07233149333257L131.14933333333335,33.5040308916432L131.24,30.4682778120642L131.60266666666666,44.995354446789804L131.69333333333333,37.54340984944784L131.87466666666666,48.71451786153756L132.328,49.75101969505897L132.69066666666666,39.247766071430505L132.736,33.9233984589757L133.23466666666667,39.60836148438608L133.59733333333332,35.4147534242708L133.86933333333332,29.077838093730264L133.91466666666668,29.835152735931928L134.00533333333334,24.328288426450484L134.096,22.725612848444115L134.32266666666666,29.547855178664292L135.184,40.90757822283922L135.456,33.347873249236216L135.50133333333332,45.69913147067808L135.95466666666667,52.20045588198215L136.04533333333333,42.734725840304634L136.18133333333336,56.35009496932676L136.22666666666666,52.21868138799181L136.272,43.52671760893429L136.77066666666667,51.73462999656097L136.90666666666667,44.21518270173607L137.17866666666666,43.75663628503489L137.40533333333332,38.95413733810415L137.49599999999998,50.698122313513394L137.58666666666667,42.613291845275825L137.67733333333334,37.23175715003882L138.08533333333335,49.21587454024623L138.26666666666665,54.01438921029491L138.448,57.110654797424246L138.53866666666667,54.689440648654326L138.67466666666667,44.28718665080041L139.08266666666665,46.123082761691705L139.128,42.056893523719765L139.30933333333334,35.439434179015535L139.58133333333333,38.890062424035534L139.672,34.288524576730794L140.21599999999998,31.706953053176733L140.26133333333334,48.15644129297905L140.30666666666667,43.94778029109423L140.352,43.52463022540692L140.488,42.276785274302966L140.66933333333333,38.47076827979399L140.94133333333332,46.66542205138751L140.98666666666665,44.85641815725603L141.12266666666667,52.103607401807494L141.48533333333333,52.21687896775093L141.71200000000002,45.37699447844011L141.84799999999998,41.63975514739221L141.984,46.75833733569971L142.02933333333334,37.31723666865696L142.30133333333333,35.18529527867699L142.392,39.60468726292049L142.664,28.158248675226076L142.8,27.49810978004149L142.93599999999998,24.66387628579659L142.9813333333333,24.148709340163066L143.16266666666667,26.838676848905465L144.024,36.771870830289714L144.20533333333333,35.70777988455123L144.296,34.822665316597664L144.52266666666665,32.35319307176255L144.74933333333334,38.74199534185132L145.33866666666665,40.07677040303716L145.52,54.346486351807044L145.656,53.33020108786184L146.336,45.4222939226357L146.8346666666667,46.352815020155475L146.88,61.093426548665235L147.016,55.75503011845095L147.28799999999998,57.6052107220451L147.60533333333333,57.08995713946355L147.65066666666667,62.605291662821955L147.696,62.885707935709476L147.74133333333333,60.4653608265092L147.78666666666666,49.51564702442286L147.832,43.64237985935506L148.19466666666665,48.10278095015727L149.2373333333333,44.321720562464066L149.28266666666664,45.6702240221245L149.328,37.422105165285814L149.64533333333333,39.974060156377504L150.144,44.345840908353495L150.23466666666667,48.63642374566487L150.77866666666668,37.87725550961886L150.824,42.19573612672883L150.96,50.2819784466993L151.05066666666667,44.08277846279091L151.096,42.95896742999207L151.18666666666667,42.20752083104412L152.048,39.68919727679338L152.27466666666666,34.31868854936317L152.41066666666666,33.51904929171542L152.54666666666665,42.21198692707253L152.95466666666667,39.98578081838548L153,42.271583806364305L153.272,43.85054670221581L153.36266666666666,43.860977603331094L153.408,37.194388208068574L153.67999999999998,34.003389622372424L153.816,27.662066013356764L154.088,28.945180029530633L154.17866666666666,24.92733502881518L154.26933333333335,29.70763863393367L154.40533333333332,39.872111214611124L154.81333333333333,44.01064557913509L155.04,50.21572590753459L155.13066666666668,52.539710873352604L155.176,56.37676472119925L155.22133333333332,52.25403804718427L155.72,52.560870663190016L156.17333333333335,46.82200699216773L156.536,45.12985925226499L157.30666666666667,45.08376188665997L157.624,39.37569868782765L157.66933333333333,35.727625014241994L157.80533333333335,29.110788456005622L158.25866666666667,34.09758140996482L158.53066666666666,37.59469798736845L158.71200000000002,45.04724423441098L158.93866666666668,38.76134815523173L159.02933333333334,30.916823822312864L159.12,30.247177891097266L159.21066666666667,23.28555445784417L159.30133333333333,22.889254526818036L159.4826666666667,33.90036219539206L159.52800000000002,41.16128625686491L159.664,50.47874599292474L159.93599999999998,44.33515496111676L160.02666666666667,43.182852109442194L160.16266666666667,61.4983212067316L160.52533333333332,66.80529987335618L160.616,54.768836371534576L160.66133333333335,48.936374346935594L160.70666666666665,46.41502160466442L161.06933333333333,43.056164918176705L161.74933333333334,42.487599974847626L161.84,34.17226817727155L161.93066666666667,40.66606393023423L162.02133333333333,46.47393718223748L162.112,42.75363198946664L162.52,48.15080461844374L162.7013333333333,47.30774629674548L163.29066666666668,47.754258194183876L163.47199999999998,45.68808792676711L164.33333333333331,36.373963176313026L165.01333333333335,46.44303291603518L165.05866666666668,42.78793009068917L165.33066666666667,41.64114647751572L165.376,43.29495459607051L165.46666666666664,34.37152957433733L165.60266666666666,32.51368015641734L165.82933333333335,35.106346414514064L165.96533333333332,30.27553848806886L166.01066666666665,24.94023675008964L166.10133333333334,26.71547947323333L166.82666666666665,29.84580009616036L167.144,32.54137303998823L167.32533333333333,34.691580198506045L167.64266666666666,37.3329442891615L167.68800000000002,40.30096860112286L168.00533333333334,40.255602335250444L168.14133333333334,60.99572885249765L169.22933333333333,52.98238538052627L169.36533333333335,45.278917728404735L169.68266666666668,51.071114976074085L169.81866666666664,46.15805494567627L169.864,59.469363160688815L169.95466666666667,50.237253548932145L170,47.08723109980758L170.31733333333332,49.459033628412016L170.408,42.66664673208854L170.90666666666667,39.39529454016076L171.13333333333333,33.01861759643981L171.54133333333334,27.953470103677688L171.632,28.01858268148723L171.72266666666667,21.531623530536564L171.904,23.770851154509984L172.04,26.75474421375563L172.62933333333334,27.513339082699986L172.67466666666667,30.2898573855972L172.72,27.95572800417051L172.992,36.74397052315018L173.35466666666667,32.68731047096841L173.62666666666667,35.83244782446519L173.672,36.73888480523573L173.71733333333336,29.285057149892367L173.89866666666666,33.39173079702485L174.12533333333334,34.89792638860149L174.44266666666667,40.13515576010519L174.80533333333335,37.3811744249555L174.98666666666665,38.595204102068095L175.168,46.83693244890023L175.25866666666667,44.16396292535296L175.53066666666666,42.61539587285131L175.66666666666669,44.21702265479553L175.75733333333332,40.382922710837704L175.84799999999998,32.281753448711584L175.93866666666668,30.177659791054197L176.07466666666667,32.34473597886003L176.30133333333333,29.83234497468999L176.84533333333334,34.730049212067456L177.072,37.85414929012953L177.2986666666667,40.76794756655406L178.11466666666666,35.43083997938405L178.296,29.71882482982187L178.43200000000002,39.350424725553694L178.65866666666668,37.09365255009706L178.976,32.05619714515575L179.15733333333333,30.78056485121354L179.24800000000002,25.2415597874749L179.52,25.815838182088214L179.56533333333334,31.31210526757539L179.83733333333333,31.762558989153575L180.15466666666666,43.92767284424946L180.42666666666668,37.13690455177573L180.56266666666667,46.242602698581436L180.8346666666667,39.9933186704626L181.33333333333331,32.06955254508941L181.424,40.104020080782135L181.74133333333333,39.319010529293024L181.87733333333333,36.02551923984879L182.01333333333335,42.14272380873723L182.10399999999998,37.25525201015134L182.33066666666667,34.377555633832884L183.056,29.949319863436273L183.14666666666668,31.580550040237L183.192,28.34124280746147L183.37333333333333,30.490127092340742L183.41866666666667,29.524624402705L183.60000000000002,26.63637562055112L183.69066666666666,23.428611717355892L183.96266666666668,21.455042288373193L184.008,32.93500074757307L184.32533333333333,32.254082923992854L184.86933333333332,28.516393179691505L185.096,42.77910342015676L185.23200000000003,43.632434859945334L185.64,47.07723221977179L185.68533333333332,39.26255518124421L185.95733333333334,36.65265855070217L186.00266666666664,41.97308160392609L186.63733333333334,51.335608375183156L186.81866666666664,46.63746551301401L186.90933333333334,40.85596212143167L187,47.63453100530569L187.136,41.46784401437219L187.272,38.743512131567115L187.67999999999998,38.199104966589886L187.952,42.02302697407424L188.04266666666666,40.328641039279034L188.54133333333334,39.44883118887719L188.58666666666667,38.1445352980308L188.85866666666666,37.038814146630244L189.176,31.991021052899214L190.264,30.82806520781415L190.39999999999998,33.24426979048408L190.536,45.411733148479954L190.62666666666667,39.19560156968279L191.57866666666666,48.92822715977593L191.71466666666666,53.68469575622085L191.89600000000002,56.12319997662968L191.94133333333332,57.1991598299787L191.98666666666665,48.25750006435507L192.25866666666667,37.50378909711688L192.39466666666667,47.40366573051685L192.48533333333333,40.65232265369005L192.89333333333332,45.4864764883757L193.07466666666667,37.56625833079383L193.21066666666667,39.22912198366302L193.43733333333333,44.13767581702868L193.8,40.82394113332265L193.9813333333333,33.61748728420045L194.072,35.508904348801394L194.16266666666667,34.65200866415714L194.75199999999998,34.21394463082251L194.84266666666667,29.84755631925239L194.97866666666667,34.43306052502845L195.52266666666665,31.851687381195944L195.704,34.75904934294357L195.93066666666667,37.12901241953213L196.02133333333333,33.27101063548281L196.47466666666668,29.378063290061647L196.56533333333334,36.83902158620592L196.656,34.21678227661775L197.24533333333332,25.429199056518172L197.5173333333333,20.867574499274298L197.97066666666666,25.016802940553475L198.19733333333335,23.97456551898935L198.51466666666667,22.60764851716894L198.65066666666667,19.82766784148177L198.74133333333333,23.397126591905163L199.648,23.123831427369566L199.69333333333333,26.591797414375066L199.73866666666666,27.218004150948587L199.96533333333332,38.714371780004086L200.056,45.30586421893253L200.328,41.616171592961166L200.50933333333333,32.24566579932008L200.872,32.756107259471264L200.91733333333335,27.481177778461813L201.144,41.98592880372817L201.18933333333334,36.37291768548934L201.37066666666666,32.83504580817683L201.86933333333332,43.351077537129925L202.14133333333334,39.36250469597954L202.41333333333333,28.939035481807053L202.54933333333335,26.10270011441264L203.048,27.338927268483417L203.22933333333333,26.67328928264095L203.41066666666666,24.224242652799973L203.728,38.12115185172328L203.90933333333334,35.95542334509585L204.136,46.00500436062754L204.36266666666666,45.8324528002307L204.544,46.60662221108308L204.58933333333334,47.17478035052457L204.67999999999998,48.21802888658644L205.088,45.89718572090874L205.13333333333333,39.234129301283104L205.632,42.550888600032806L205.72266666666667,43.686145744354235L205.76799999999997,37.41910375642195L206.08533333333335,29.8825872248878L206.176,41.39389618707625L206.22133333333332,32.54645221653459L206.26666666666665,39.644753104796905L206.31199999999998,43.20880580548459L206.49333333333334,40.89828198175428L206.58399999999997,36.02618722371395L207.58133333333333,28.2826140914554L207.71733333333336,19.338027842961083L208.352,18.426371491356065L208.57866666666666,16.146212064553595L208.624,27.444307130160922L208.71466666666666,37.33833250411203L209.07733333333334,36.791619130318026L209.304,36.34165079954212L209.62133333333335,47.30823515845458L210.89066666666668,43.87759940804503L211.208,44.04000682495786L211.70666666666665,42.476073493004606L211.93333333333334,47.16822629309519L212.34133333333332,40.64096350795833L212.38666666666668,42.56363611804173L212.84,49.74131823624654L212.88533333333334,55.10304677854555L212.93066666666667,59.10825799964289L213.02133333333333,59.197104377798524L213.112,55.67908133435792L213.2026666666667,56.489154148458496L213.24800000000002,56.129942752937666L213.29333333333335,55.86161184048363L213.384,44.01695204977369L214.2,44.958677480668996L214.42666666666668,42.628863547786295L214.65333333333334,33.163420931260305L214.78933333333333,37.18411747418753L214.92533333333333,32.53487048989908L215.15200000000002,27.644687137256483L215.65066666666667,24.82740323371695L216.05866666666668,23.665015896061817L216.19466666666665,16.757110041639322L216.24,22.430951565727668L216.648,23.53277118044508L216.92,33.303998138174876L217.60000000000002,30.969434205242095L217.64533333333333,26.116783624099128L217.91733333333335,29.121783977295138L218.09866666666665,31.32595775739179L218.23466666666667,36.26824979755105L218.50666666666666,42.12814265476564L218.59733333333332,38.319176127729946L219.00533333333334,44.805121148873326L219.18666666666667,48.971834540066084L219.45866666666666,46.185426242579666L219.68533333333332,40.56043128491038L219.95733333333334,44.93613950964891L220.13866666666667,41.02513713937742L220.36533333333335,35.46806140808266L220.68266666666668,32.57985330534376L220.864,37.67144870407543L221.272,30.523887231091948L221.408,33.60059628693142L221.952,34.680853586118275L222.26933333333335,27.204850711201118L222.40533333333332,26.307241771214734L222.49599999999998,27.36814841728443L222.54133333333334,30.044745525519772L222.72266666666667,32.044163565371576L222.76799999999997,24.086841392114763L222.81333333333333,23.798983191261158L223.35733333333334,20.99158282065258L223.62933333333334,21.25618478102035L223.67466666666667,26.048091472071235L223.76533333333333,30.113819885705624L223.992,29.167355050734358L224.03733333333332,32.35718481184489L224.17333333333335,25.57032487109663L224.44533333333334,27.091511837563672L224.62666666666667,34.857798365415675L224.944,30.673957387565736L225.39733333333334,25.63778529447862L225.66933333333333,18.67470108246667L225.85066666666668,18.43171254832714L225.98666666666665,13.076655470757288L226.34933333333333,15.300507120983951L226.44,13.809395626287426L227.02933333333334,12.442776981270612L227.21066666666667,23.860880605184434L227.256,20.29168322667789L228.11733333333333,27.366006568030798L228.16266666666667,32.650526104021424L228.2986666666667,26.3439118847443L228.616,26.7516734052399L228.70666666666665,25.676764757348906L229.06933333333333,25.178291575341063L229.16,29.87951044974605L229.20533333333333,27.470125435320483L229.79466666666667,25.34908699007468L229.88533333333334,24.296947132858577L229.93066666666667,23.860698185708884L230.33866666666665,29.62282487123116L230.47466666666668,29.526769498320135L230.56533333333334,29.455016134755596L230.97333333333333,31.95447335254437L231.10933333333332,28.2485069974783L231.2,28.11172905382699L231.29066666666668,26.71844130363104L231.8346666666667,31.09211013946245L232.60533333333333,27.626149880984258L232.832,26.5067770710844L233.28533333333334,25.661758341641217L233.55733333333333,22.826267309178405L233.87466666666666,24.839787270552478L234.14666666666668,33.17634259297762L234.2373333333333,32.00473190519645L234.41866666666667,35.40790690587119L234.736,32.80837707540789L234.78133333333332,51.71815338408139L234.82666666666665,46.85961025158531L235.28,51.73528162831042L236.00533333333334,46.16021561513841L236.23200000000003,42.69489272272392L236.45866666666666,36.27867859620795L236.68533333333332,30.102185470399775L236.73066666666665,31.13221345235064L236.82133333333334,26.25777600793836L236.95733333333334,22.77183547520073L237.41066666666666,17.474500081603367L237.592,30.492968730528645L237.63733333333334,40.21776481127583L237.90933333333334,29.151126700326955L238.09066666666666,38.95709408860088L238.136,46.28215172764152L238.49866666666668,41.34781926356095L238.63466666666665,37.126445758947796L238.67999999999998,32.41106401799814L238.77066666666667,27.65522734826672L238.90666666666667,21.089074394618308L238.952,25.791319098082766L238.99733333333336,29.303895891570704L239.04266666666666,20.114971952399742L239.224,16.658490882234332L239.31466666666668,28.14253277243739L239.45066666666665,29.95771348172221L239.49599999999998,30.11193999525767L239.54133333333334,30.333840196416958L239.58666666666667,30.499599646682924L239.67733333333334,23.698684709995064L239.81333333333333,33.92367090727845L239.85866666666666,31.572930023066533L240.13066666666668,36.08221962271659L240.40266666666668,36.43715088735857L240.49333333333334,28.33631411107598L240.62933333333334,31.507788938890172L241.17333333333335,34.2462395027934L241.536,38.26401021290985L241.58133333333333,34.13261337868224L241.62666666666667,33.173781056623795L241.89866666666666,30.737475156986307L242.21599999999998,38.142091250069996L242.44266666666667,32.67997484030835L242.76,23.98327254266158L242.94133333333332,26.056397572780952L243.34933333333333,23.333452954538757L243.62133333333335,19.30020003855043L243.71200000000002,16.28273248817959L243.84799999999998,19.642515978922347L244.1653333333333,26.388757619076273L244.43733333333333,25.858881051905513L244.57333333333332,25.574051028693674L244.664,28.93547956257177L244.70933333333332,26.296830521058126L245.11733333333333,23.99709919927639L245.57066666666668,21.957722428527234L245.616,33.61563865947906L245.97866666666667,25.135945859868457L246.52266666666665,22.32071259617348L246.65866666666668,22.300641099515104L246.79466666666667,30.066344713949377L247.384,47.207243547326414L247.74666666666667,41.46745620530257L248.10933333333332,33.25562760207629L248.15466666666666,27.11964151387275L248.29066666666668,27.397218581059292L248.38133333333334,26.134485301377367L248.42666666666668,19.450848872975996L249.06133333333332,25.69326324252964L249.24266666666668,24.959811948042557" style="fill: none;" fill="none"></path></g></g></g></g><g opacity="0.2"><g><g><g><path stroke="rgb(255, 112, 67)" stroke-width="2px" d="M23.029333333333334,148.03861452341079L23.618666666666666,131.19560391902922L23.890666666666668,143.76021223962306L24.616,85.096839261055L24.706666666666667,148.12549675703048L24.842666666666666,61.841842365264895L24.93333333333333,129.1027409851551L25.205333333333332,138.5205273747444L25.34133333333333,139.18611833155154L26.02133333333333,148.2011115670204L26.157333333333334,88.53390212059021L26.384,82.99679095745087L26.746666666666666,127.7662966966629L27.064,122.61916888952256L27.426666666666666,144.42336165606974L27.562666666666665,134.0703194260597L27.608,107.30850137472153L27.925333333333334,133.7999596118927L28.514666666666667,85.096839261055L29.104,144.63369352817534L29.602666666666668,88.46208025217057L29.82933333333333,136.52184344530104L29.965333333333334,153.1761870354414L30.37333333333333,103.93453396558762L30.418666666666667,112.03656483888626L30.872,77.30353261232376L31.098666666666666,83.53172833919525L31.189333333333334,103.88893909454346L31.234666666666666,116.80491040349007L31.416,127.0602260351181L31.778666666666666,116.71570466160775L32.141333333333336,126.036545586586L32.18666666666667,83.88532598018647L32.413333333333334,127.08342133164406L32.912,120.37072373628617L33.184,140.6994861036539L33.410666666666664,118.74903167486191L33.54666666666667,81.83592803478241L34.090666666666664,99.62705202102661L34.36266666666666,131.30596260428428L34.589333333333336,76.77710415124893L34.906666666666666,113.16435225009918L35.088,132.7786398053169L35.178666666666665,106.18117017745972L36.04,101.07675142288208L36.266666666666666,136.40752736926078L36.312000000000005,111.4371421456337L36.538666666666664,124.70297915935517L36.76533333333333,56.90292317867279L36.856,102.55451328754425L37.218666666666664,59.234866094589236L37.264,84.62222291231156L37.58133333333333,106.0222114443779L37.76266666666667,114.71149046421051L38.17066666666667,54.82687385082245L38.53333333333333,136.17178146243094L39.25866666666667,60.989528608322146L39.44,63.405722570419314L39.711999999999996,57.18305976390839L39.89333333333333,122.08614124059677L39.983999999999995,32.298922848701494L41.888,55.78718299865723L41.93333333333334,88.4696396112442L42.024,68.72697026729584L42.296,114.77902073860169L42.704,65.4536563873291L42.794666666666664,85.99684859514237L42.84,83.57547183036804L42.976,100.23362560272217L43.248,42.73724658489229L43.656,114.40389086008072L43.792,27.084673237800615L43.83733333333333,72.99512763023377L44.29066666666667,133.58017058372496L45.06133333333333,85.31617207527161L45.152,64.8065434217453L45.78666666666667,90.17116911411286L46.01333333333333,35.37738032341005L46.104000000000006,81.27329952716828L46.24,131.61658595204352L46.602666666666664,78.63022930622101L46.87466666666667,80.98626137971878L46.965333333333334,73.68348021507263L47.10133333333333,62.200617504119876L47.373333333333335,81.61124796867371L47.599999999999994,112.28002924919129L48.053333333333335,95.39568353891373L48.32533333333333,62.55233724117279L48.59733333333333,119.10813571214676L48.778666666666666,61.35551829338074L49.05066666666667,93.64788014888764L49.141333333333336,73.42433477640152L49.18666666666667,84.48728437423706L49.27733333333333,29.117774796485918L49.367999999999995,52.8309484243393L49.413333333333334,131.9723532617092L49.64,34.358919811248796L49.68533333333333,130.77877820730208L50.093333333333334,71.22956902980805L50.36533333333333,72.68251497745514L50.456,85.0857946395874L50.68266666666666,50.841505479812625L50.909333333333336,77.67708696126938L51,75.98757816553116L51.544,69.74877281188965L51.861333333333334,34.26942760944368L51.906666666666666,63.873861742019656L51.99733333333334,92.25035358667374L52.088,85.67445917129517L52.13333333333334,127.94141654372216L52.224000000000004,53.041294884681705L52.768,106.90104396343231L52.904,84.07325429916382L53.08533333333333,51.02509446144104L53.221333333333334,100.67967553138733L53.35733333333333,85.05512751340866L53.538666666666664,135.92989788651465L53.584,111.56421364545822L53.76533333333333,93.54205973148346L53.992000000000004,82.97900391817093L54.49066666666667,57.28576095104218L54.672000000000004,129.21958480477332L54.80800000000001,89.05341840982437L55.17066666666667,50.42778308391571L55.352,89.59944815635681L55.488,99.54886968135834L55.53333333333333,52.97916491031647L55.57866666666667,30.09678871631624L55.895999999999994,83.28040750026703L56.168,118.5641668856144L56.25866666666667,56.0010094165802L56.303999999999995,36.78912909030916L56.48533333333333,0.07747573852540768L56.66666666666667,61.79559500217438L56.848,44.31242604255678L56.89333333333333,67.07583649158478L57.07466666666667,106.52341021299362L57.48266666666667,39.78711254596712L57.664,84.42974836826325L57.70933333333333,41.95599610805513L57.75466666666667,110.29380102157593L57.845333333333336,83.18073536157608L57.89066666666667,123.51224218010903L58.16266666666667,94.87685157060623L58.344,10.939813208580034L58.38933333333333,144.2100007355213L58.48,98.33808846473694L58.57066666666666,78.97077180147171L58.70666666666666,64.87248225212097L58.752,115.90073679089546L58.797333333333334,128.23017345070838L58.842666666666666,126.13187838792801L58.97866666666666,54.10449619293213L59.16,76.47884632349015L59.38666666666666,95.57651932239533L59.432,107.23001135587693L59.477333333333334,133.13502512574195L59.74933333333334,27.2177391767502L60.52,35.41992492675783L60.70133333333334,103.54337824583054L60.792,52.89042599201203L61.01866666666667,23.22450907230379L62.10666666666667,117.08558012247086L62.19733333333333,25.57195265293123L62.424,87.14337260723114L62.51466666666667,116.56610361933708L62.696000000000005,110.07938046455384L62.78666666666667,50.17686541080475L63.14933333333333,95.4975041270256L63.42133333333333,23.428044152259844L63.602666666666664,93.62650175094605L63.919999999999995,14.595264625549333L64.01066666666667,91.20575625896454L64.28266666666667,60.85060615539551L64.37333333333333,11.717902016639727L64.50933333333333,62.857183647155765L64.64533333333333,31.11313791275026L65.008,52.2663253068924L65.05333333333333,32.67734701633455L65.18933333333334,128.0612257540226L65.50666666666667,79.31060345172882L65.64266666666667,11.267894697189348L66.05066666666667,29.802191209793108L66.232,47.94095022678377L66.368,83.1192950129509L66.41333333333334,125.30954213142395L66.82133333333333,80.10173679590226L66.86666666666666,34.17204184532167L67.048,29.91697676181795L67.13866666666667,32.10145647525789L67.184,50.22319765090943L67.36533333333334,70.26224691867829L67.41066666666666,58.22527523040772L67.54666666666667,33.16753299236299L67.592,136.64496551156043L67.95466666666667,93.3440469622612L68.136,63.20058543682099L68.22666666666667,54.56398851871491L68.31733333333332,83.52384008169174L68.36266666666667,42.903658580780046L68.77066666666667,17.55309064388277L68.90666666666667,95.17891294956208L69.26933333333334,12.03988296985628L69.36,15.145267677307146L69.58666666666667,37.16373379230501L69.81333333333333,87.91749341487885L70.13066666666667,125.00744096636772L70.72,27.00041158199312L70.992,42.97089178562166L71.128,40.1295382499695L71.21866666666666,97.57301236391068L71.4,29.377424192428606L71.58133333333333,43.42096276283266L71.672,77.98381657600403L71.89866666666666,131.87377391457557L71.944,33.72380633354189L71.98933333333333,43.41246445178987L72.352,87.84193695783615L72.62400000000001,6.78727955818178L72.80533333333334,23.96343774795534L72.85066666666665,41.354780387878435L72.896,-1.2598358869552726L73.304,81.11958194971085L73.53066666666666,51.03524787425995L74.16533333333334,65.8881206035614L74.256,97.65399564504624L75.16266666666667,39.002435159683245L75.20800000000001,78.37914187908173L75.38933333333334,87.70074934959412L75.43466666666666,26.497833561897295L75.48,33.032631587982195L76.296,30.04236133098604L76.52266666666667,110.41956223249436L76.83999999999999,72.60643334388733L76.88533333333334,38.12701363563539L77.15733333333334,154.61731253266333L77.24799999999999,112.51383359432221L77.47466666666666,49.81660492420198L77.56533333333334,31.71086306571962L78.65333333333334,56.27769787311554L78.744,83.64379782676697L78.83466666666666,89.1442527294159L79.19733333333333,35.19127686023714L79.33333333333334,47.1407721757889L79.696,26.220009875297563L79.832,150.3119259893894L79.96799999999999,23.765037727355974L80.55733333333333,51.776022624969485L80.87466666666667,49.932737898826616L81.14666666666668,109.65411479473114L81.41866666666667,52.080412817001346L81.464,77.99812896251679L81.73599999999999,42.864148330688494L82.18933333333332,102.39010120630265L82.416,57.191462588310245L82.46133333333333,92.21415354013443L82.59733333333332,100.3625697016716L82.86933333333333,24.45882244110109L82.96,131.21722899079322L83.096,64.43916387557984L83.232,41.03151566982271L83.368,89.78311140537262L83.41333333333333,128.7346665084362L84.22933333333333,51.89320595264435L84.90933333333332,13.590925526618975L85.58933333333333,60.053748917579654L85.72533333333332,40.7435279607773L85.77066666666667,71.33311368227005L85.86133333333333,22.881223988533037L85.90666666666667,48.476980400085466L86.85866666666668,30.104523134231584L86.904,51.13786418437958L87.13066666666667,59.24090297222138L87.26666666666668,41.213354063034075L87.44800000000001,99.20723969936371L87.53866666666667,75.5845980167389L87.72,30.955998730659502L87.90133333333333,96.37687773704529L88.08266666666665,116.00896559357643L89.21600000000001,99.30362815856934L89.26133333333333,17.77058799266817L89.76,38.8435559988022L90.12266666666666,18.34179968833925L90.168,55.15821249485016L90.304,29.555527997016924L90.39466666666667,65.2495377779007L90.44,64.41172738075257L90.848,39.447466564178484L91.16533333333334,30.72632153034212L91.84533333333333,110.1731748700142L91.89066666666666,6.439400506019609L92.02666666666666,28.48393447399141L92.888,20.92086203098299L93.11466666666666,63.65801949501038L93.16000000000001,26.861701321601885L93.25066666666666,72.48564274311066L93.568,37.231518697738665L93.88533333333334,142.34008717238902L93.93066666666667,41.58387405872347L94.33866666666667,145.52254949212073L94.52,78.87440986633301L94.61066666666666,105.36834545135498L94.79199999999999,46.949714016914385L95.19999999999999,88.77405632734299L95.51733333333334,61.113183808326724L95.56266666666667,132.45244417786597L95.78933333333333,53.52738554477692L96.152,78.61511589288712L96.56,59.36582071781159L96.60533333333333,86.15007812976837L96.78666666666666,123.27431599497795L97.01333333333334,120.6882539510727L97.14933333333335,9.556689214706438L97.24,92.76004005670548L97.37599999999999,61.39986653327942L97.512,40.5901551961899L97.69333333333334,47.96138436794283L98.056,41.55345625877382L98.41866666666667,73.1116478562355L98.6,47.259568166732805L98.73599999999999,78.55929864645005L98.78133333333334,29.9925491333008L99.05333333333334,94.82115103006363L99.09866666666667,102.49814964532852L99.46133333333333,126.9189217209816L99.64266666666667,96.63832015991211L99.688,50.75783796310425L99.73333333333332,58.98816044330597L99.824,60.445275974273684L99.96,44.804479312896746L100.27733333333333,56.8422997713089L100.32266666666666,69.72683210372925L100.68533333333333,34.38070137500765L100.73066666666666,66.04238457679749L101.13866666666667,25.890188407897966L101.32,51.32601530551911L101.41066666666667,45.065221500396746L101.54666666666667,59.68747277259827L101.77333333333333,17.93381710052492L101.81866666666667,8.88924820423128L101.90933333333332,88.7590490102768L101.95466666666667,25.673030567169207L102,37.525447797775286L102.22666666666667,52.09850223064423L102.86133333333333,62.09496684074402L103.26933333333334,97.99910558462143L103.54133333333333,15.458050084114092L103.85866666666668,18.518725824356096L103.904,9.399380278587358L104.312,15.594214034080522L104.62933333333334,52.42023916244507L105.03733333333334,45.88336164951326L105.17333333333333,66.84034521579743L105.49066666666666,29.561002564430254L105.58133333333333,38.10873324871065L105.76266666666666,54.8710205078125L106.21600000000001,33.076969218254106L106.26133333333333,47.22928829193117L106.39733333333334,6.534462761878984L106.62400000000001,35.57766885757448L106.80533333333334,28.563644599914568L107.39466666666667,9.394330096244829L107.48533333333333,65.20856339931488L107.53066666666666,34.813987922668474L107.80266666666667,24.558637809753435L107.848,42.23850924968721L107.89333333333333,51.493180584907535L107.98400000000001,23.727532696723955L108.61866666666666,50.2786966085434L109.43466666666666,50.00379056930542L109.70666666666666,10.337356162071245L110.024,78.97581667900086L110.296,77.8919212937355L110.47733333333333,34.84947712421419L110.568,33.0127067089081L110.65866666666666,43.84908242225649L110.93066666666667,36.433441352844255L111.06666666666666,36.44777495861055L111.15733333333334,102.30135698318482L111.29333333333334,65.07259042263031L111.42933333333333,28.621371579170244L111.56533333333334,39.5088963031769L111.97333333333334,48.71307642459871L112.064,79.99892420768738L112.60799999999999,84.67598189115525L112.65333333333334,42.125888061523455L112.69866666666667,88.57027722597122L113.33333333333334,14.907060337066667L113.51466666666667,104.091805768013L113.696,49.05045194625856L113.87733333333334,57.594044876098636L113.92266666666667,55.166074228286746L114.05866666666667,33.39429254531862L114.14933333333335,19.991607260704058L114.24,54.28738493919373L114.60266666666666,76.12333894968033L114.69333333333334,23.41467602252962L114.82933333333334,24.986237597465532L114.96533333333333,21.31358797550203L115.10133333333334,34.429113101959246L115.192,57.45613033771515L115.328,51.867626142501834L115.464,45.53370018005373L116.18933333333332,19.749484968185442L116.50666666666667,21.249155712127703L116.73333333333332,41.82973093986513L116.77866666666667,48.26776916980745L116.824,27.670441341400164L116.91466666666668,6.681915354728716L116.96,13.228330922126787L117.05066666666667,89.37517656087876L117.14133333333332,54.404451560974124L117.32266666666666,32.04552252292635L117.504,31.295368862152117L117.73066666666666,12.490495038032549L117.82133333333333,9.574927163124102L118.13866666666667,36.889644694328325L118.22933333333333,88.67447967529297L118.27466666666668,37.666343641281145L118.50133333333332,67.7575156211853L118.68266666666668,35.96190710067751L118.90933333333332,25.866751742362993L119,62.20367307662964L119.04533333333333,47.585527729988115L119.49866666666668,29.570975613594072L119.544,33.05911321640016L119.72533333333332,36.89890689849855L119.86133333333333,51.737180781364444L119.99733333333333,49.9604184150696L120.04266666666668,5.558515024185198L120.17866666666667,44.896995258331316L120.224,50.25333960056305L120.31466666666667,36.927796912193315L120.54133333333333,70.16781063079834L120.58666666666667,94.47503848075867L120.904,32.603907179832476L120.94933333333333,54.90819664001465L121.13066666666667,33.14357645511629L121.22133333333333,8.576720428466814L121.312,27.127684664726274L121.49333333333333,17.024646353721636L121.94666666666666,34.82374877929689L122.03733333333334,29.817596387863176L122.128,26.808016610145586L122.17333333333333,52.55947990417481L122.35466666666666,24.662060451507585L122.49066666666666,64.96079678535462L122.85333333333332,48.46217997074129L123.03466666666667,37.68934531211855L123.66933333333333,51.602321815490725L123.85066666666665,27.02264935970308L123.94133333333333,126.30920503735543L124.168,8.458964180946367L124.21333333333334,21.7904588699341L124.304,56.315966796875L124.39466666666667,21.60670013427736L124.44,33.44745738506319L124.53066666666666,52.6264372587204L124.62133333333334,86.81238408088684L124.66666666666666,39.828797769546526L124.98400000000001,49.71755344867708L125.12,65.06239457130432L125.34666666666666,6.882044744491594L125.89066666666666,39.442586135864275L126.072,53.91239829063416L126.20800000000001,57.25402755737305L126.66133333333333,27.143938612937944L126.93333333333334,23.39823110103609L126.97866666666667,38.50040884017946L127.06933333333333,8.03133256435396L127.20533333333333,3.7870999097824267L127.34133333333334,62.90409941673279L127.38666666666667,26.5389883041382L127.432,57.745401811599734L127.88533333333334,22.582255315780657L127.93066666666667,19.35809583663942L127.976,10.391560745239275L128.06666666666666,22.50774390697481L128.61066666666667,31.203160595893877L128.656,13.527490568161028L128.70133333333334,18.707269501686113L128.74666666666667,43.51830608844759L129.10933333333332,19.284921240806597L129.51733333333334,46.73647112846376L130.28799999999998,44.472429823875444L130.92266666666666,33.60520131587984L131.10399999999998,41.94549257755281L131.14933333333335,25.920945715904253L131.24,21.505006861686724L131.60266666666666,87.88755304813385L131.69333333333333,15.541027975082415L131.87466666666666,81.697986972332L132.328,52.81136305332184L132.69066666666666,8.236183238029497L132.736,18.202834796905535L133.23466666666667,56.393608045578006L133.59733333333332,23.032835555076616L133.86933333333332,10.36765725612642L133.91466666666668,32.071176600456255L134.00533333333334,8.068890643119829L134.096,17.99360234737398L134.32266666666666,49.69099755287172L135.184,74.44794626235962L135.456,11.027321410179155L135.50133333333332,82.16707570552826L135.95466666666667,71.39606590270996L136.04533333333333,14.786503148078936L136.18133333333336,96.55041409730912L136.22666666666666,40.02039701938631L136.272,17.86309332847597L136.77066666666667,75.96905906200409L136.90666666666667,22.01349444389345L137.17866666666666,42.402746272087114L137.40533333333332,24.774427008628862L137.49599999999998,85.37305028438568L137.58666666666667,18.742270660400408L137.67733333333334,21.342403721809404L138.08533333333335,84.59981007575989L138.26666666666665,68.18233568668366L138.448,66.25259311199189L138.53866666666667,47.54063839912416L138.67466666666667,13.573812198638933L139.08266666666665,51.5436930179596L139.128,30.051188540458696L139.30933333333334,15.900927734375017L139.58133333333333,49.07828099727632L139.672,20.702165794372576L140.21599999999998,24.084684562683123L140.26133333333334,96.72469313144684L140.30666666666667,31.521417570114153L140.352,42.27525038719179L140.488,38.59243674278261L140.66933333333333,27.2332398414612L140.94133333333332,70.86070413589478L140.98666666666665,39.51520903110506L141.12266666666667,73.50143493413925L141.48533333333333,52.55132110118866L141.71200000000002,25.181762409210222L141.84799999999998,30.605297517776506L141.984,61.87130529880524L142.02933333333334,9.441733908653276L142.30133333333333,28.89059085845949L142.392,52.65324778556824L142.664,-5.638153004646313L142.8,25.549004030227678L142.93599999999998,16.295605850219744L142.9813333333333,22.6276432991028L143.16266666666667,34.78099198341371L144.024,66.1003131389618L144.20533333333333,32.565977764129656L144.296,32.20930333137514L144.52266666666665,25.06190545558931L144.74933333333334,57.60537595748902L145.33866666666665,44.01778609752657L145.52,96.47880972623825L145.656,50.3295485496521L146.336,22.07365102767946L146.8346666666667,49.100242924690264L146.88,104.61610169410706L147.016,39.9930454015732L147.28799999999998,63.06799693107605L147.60533333333333,55.5686352968216L147.65066666666667,78.88969833850861L147.696,63.71365637779236L147.74133333333333,53.319118571281436L147.78666666666666,17.185859632492082L147.832,26.301152300834673L148.19466666666665,61.27242369651795L149.2373333333333,33.157878232002275L149.28266666666664,49.65177376270296L149.328,13.068963718414324L149.64533333333333,47.508883786201494L150.144,57.25382597446442L150.23466666666667,61.30466635227204L150.77866666666668,6.110067081451433L150.824,54.94634885787964L150.96,74.1571682214737L151.05066666666667,25.779211711883562L151.096,39.64083762168886L151.18666666666667,39.98882277011873L152.048,32.25367279052736L152.27466666666666,18.4618900537491L152.41066666666666,31.158059072494524L152.54666666666665,67.87848658561707L152.95466666666667,33.412753295898455L153,49.02057523727419L153.272,48.51254386901857L153.36266666666666,43.891775560379045L153.408,17.51082189083101L153.67999999999998,24.581745576858538L153.816,8.93886942863466L154.088,32.733662915229814L154.17866666666666,13.064369750022905L154.26933333333335,43.82181568145754L154.40533333333332,69.88341958522797L154.81333333333333,56.229954552650455L155.04,68.53665478229523L155.13066666666668,59.40143723487854L155.176,67.70593161582947L155.22133333333332,40.08140237331392L155.72,53.46681518554688L156.17333333333335,29.877615046501177L156.536,40.13367600440981L157.30666666666667,44.94765622615816L157.624,22.522247266769426L157.66933333333333,24.956435155868547L157.80533333333335,9.57412083148958L158.25866666666667,48.82143254280092L158.53066666666666,47.92017657756807L158.71200000000002,67.05140252113343L158.93866666666668,20.201805186271685L159.02933333333334,7.755323123931902L159.12,28.270001959800737L159.21066666666667,2.7308797359466723L159.30133333333333,21.719151568412798L159.4826666666667,66.41141922473908L159.52800000000002,62.59966678619385L159.664,77.98919035196305L159.93599999999998,26.19577748775484L160.02666666666667,39.78059823513033L160.16266666666667,115.57601059675217L160.52533333333332,82.47452147006989L160.616,19.230345320701616L160.66133333333335,31.71562678813936L160.70666666666665,38.970553231239336L161.06933333333333,33.13890821933748L161.74933333333334,40.80887265205385L161.84,9.620675873756426L161.93066666666667,59.83944506645203L162.02133333333333,63.62208468914032L162.112,31.76917357444765L162.52,64.08633012771607L162.7013333333333,44.81855828762056L163.29066666666668,49.07261545658113L163.47199999999998,39.58757729530336L164.33333333333331,8.87336559295656L165.01333333333335,76.17265779972077L165.05866666666668,31.995986175537126L165.33066666666667,38.255188536644L165.376,48.177937459945696L165.46666666666664,8.024499964714067L165.60266666666666,27.02825124263765L165.82933333333335,42.761372876167314L165.96533333333332,16.012243938446062L166.01066666666665,9.187389326095598L166.10133333333334,31.957006406784075L166.82666666666665,39.08828825950624L167.144,40.50023860931398L167.32533333333333,41.040215563774126L167.64266666666666,45.13175446987154L167.68800000000002,49.06426568031313L168.00533333333334,40.121655297279375L168.14133333333334,122.23238698840142L169.22933333333333,29.322434496879595L169.36533333333335,22.533896636962908L169.68266666666668,68.1729779958725L169.81866666666664,31.651905369758623L169.864,98.77192140817642L169.95466666666667,22.978811335563677L170,37.786571931839006L170.31733333333332,56.4619446516037L170.408,22.61165459156038L170.90666666666667,29.736400914192217L171.13333333333333,14.19103784561159L171.54133333333334,12.998271775245684L171.632,28.21083207130434L171.72266666666667,2.3784279346466235L171.904,30.382325601577776L172.04,35.564894866943376L172.62933333333334,29.753142905235308L172.67466666666667,38.48771972656252L172.72,21.064049553871172L172.992,62.69186444282532L173.35466666666667,20.70974106788637L173.62666666666667,45.118683409690874L173.672,39.415202689170854L173.71733333333336,7.2771154165268115L173.89866666666666,45.51696879863741L174.12533333333334,39.345073056221025L174.44266666666667,55.59843773841858L174.80533333333335,29.24985404014589L174.98666666666665,42.179710698127764L175.168,71.17120547294617L175.25866666666667,36.27183551788332L175.53066666666666,38.04314453601839L175.66666666666669,48.9459365129471L175.75733333333332,29.062477421760576L175.84799999999998,8.36249084472658L175.93866666666668,23.965177726745623L176.07466666666667,38.74317831993105L176.30133333333333,22.414336752891558L176.84533333333334,49.190859746933L177.072,47.07827086448671L177.2986666666667,49.37113852500917L178.11466666666666,19.67266066074373L178.296,12.853705000877397L178.43200000000002,67.78838963508606L178.65866666666668,30.430376601219194L178.976,17.182761621475237L179.15733333333333,27.014172267913835L179.24800000000002,8.887264204025286L179.52,27.51143486499788L179.56533333333334,47.54021401405336L179.83733333333333,33.092554759979265L180.15466666666666,79.84601296186447L180.42666666666668,17.08669145107271L180.56266666666667,73.12780631780625L180.8346666666667,21.54187531471254L181.33333333333331,8.674084973335283L181.424,63.82634122371674L181.74133333333333,37.00121552944185L181.87733333333333,26.301258397102373L182.01333333333335,60.20419342517853L182.10399999999998,22.824653458595293L182.33066666666667,25.88095803260805L183.056,16.8746474504471L183.14666666666668,36.396869969368L183.192,18.77696413993837L183.37333333333333,36.834856581687944L183.41866666666667,26.67391092777254L183.60000000000002,18.10862131118776L183.69066666666666,13.95746691226961L183.96266666666668,15.627942037582415L184.008,66.83037216663361L184.32533333333333,30.24362595081331L184.86933333333332,17.480605673789995L185.096,84.89074195623398L185.23200000000003,46.151954960823076L185.64,57.24823470115662L185.68533333333332,16.189180684089678L185.95733333333334,28.946758222579973L186.00266666666664,57.6819986820221L186.63733333333334,78.97911627292633L186.81866666666664,32.765873742103594L186.90933333333334,23.785673451423662L187,67.64872450828553L187.136,23.260274124145525L187.272,30.69973380565645L187.67999999999998,36.59170515537264L187.952,53.313421201705935L188.04266666666666,35.325849366188066L188.54133333333334,36.851131749153154L188.58666666666667,34.293511462211626L188.85866666666666,33.77409596443178L189.176,17.08706278800966L190.264,27.394357633590715L190.39999999999998,40.37828094959261L190.536,81.33701033592224L190.62666666666667,20.842043113708513L191.57866666666666,77.66447741985321L191.71466666666666,67.7284982919693L191.89600000000002,63.32305235862732L191.94133333333332,60.37600572109223L191.98666666666665,21.85663111209871L192.25866666666667,5.752713632583635L192.39466666666667,76.63373626470566L192.48533333333333,20.718515229225176L192.89333333333332,59.75965006351471L193.07466666666667,14.181266379356401L193.21066666666667,44.13884193897249L193.43733333333333,58.630520534515384L193.8,31.039910268783586L193.9813333333333,12.339933824539202L194.072,41.093444061279314L194.16266666666667,32.12196488380434L194.75199999999998,32.92053027153017L194.84266666666667,16.95549280643465L194.97866666666667,47.97207887172701L195.52266666666665,24.23000462055208L195.704,43.343236637115496L195.93066666666667,44.12649233341219L196.02133333333333,21.879993510246294L196.47466666666668,17.883866977691667L196.56533333333334,58.86801702976227L196.656,26.474439334869402L197.24533333333332,-0.5167482376098746L197.5173333333333,7.399062466621416L197.97066666666666,37.26768691539766L198.19733333333335,20.897287440300005L198.51466666666667,18.571731519699114L198.65066666666667,11.619582605361956L198.74133333333333,33.93620045185091L199.648,22.31690855026247L199.69333333333333,36.83120687007906L199.73866666666666,29.066922855377214L199.96533333333332,72.65819240808487L200.056,64.76770157814026L200.328,30.72209889888765L200.50933333333333,4.578599286079424L200.872,34.26322097778322L200.91733333333335,11.906583619117754L201.144,84.8122094988823L201.18933333333334,19.800114107131975L201.37066666666666,22.38923437595369L201.86933333333332,74.40038861036301L202.14133333333334,27.585967493057268L202.41333333333333,-1.836978363990795L202.54933333333335,17.72822375297548L203.048,30.988973450660723L203.22933333333333,24.70794708728792L203.41066666666666,16.993263077735918L203.728,79.15273751020432L203.90933333333334,29.560960125923174L204.136,75.67708743810654L204.36266666666666,45.32298238277437L204.544,48.89241094589235L204.58933333333334,48.85230655670168L204.67999999999998,51.298292350769046L205.088,39.04473574161531L205.13333333333333,19.560994338989275L205.632,52.34384984970093L205.72266666666667,47.03807098865511L205.76799999999997,18.915228796005266L206.08533333333335,7.630500864982622L206.176,75.38183213472367L206.22133333333332,6.4237619161606005L206.26666666666665,60.602977466583255L206.31199999999998,53.731917929649356L206.49333333333334,34.076300573349016L206.58399999999997,21.640990447998064L207.58133333333333,5.419178795814531L207.71733333333336,-7.071481752395641L208.352,15.734643054008501L208.57866666666666,9.413883638381975L208.624,60.80271430015564L208.71466666666666,66.5511267900467L209.07733333333334,35.17741007804872L209.304,35.01308817863466L209.62133333333335,79.68783403635025L210.89066666666668,33.74841005802156L211.208,44.51952595710756L211.70666666666665,37.85845215320589L211.93333333333334,61.022131991386416L212.34133333333332,21.368768644332903L212.38666666666668,48.24045999050142L212.84,70.93392117023468L212.88533333333334,70.93392117023468L212.93066666666667,70.93392117023468L213.02133333333333,59.45942945480347L213.112,45.29187495708467L213.2026666666667,58.880950164794925L213.24800000000002,55.06934626102448L213.29333333333335,55.06934626102448L213.384,9.044774723052996L214.2,47.73918695449831L214.42666666666668,35.74992675781252L214.65333333333334,5.216046881675737L214.78933333333333,49.05550212860109L214.92533333333333,18.807647180557268L215.15200000000002,13.206082534790056L215.65066666666667,16.509177637100237L216.05866666666668,20.232986879348772L216.19466666666665,-3.6389598131179923L216.24,39.18336112499239L216.648,26.785969805717485L216.92,62.15422160625458L217.60000000000002,24.076472711563127L217.64533333333333,11.788997125625627L217.91733333333335,37.99425537586214L218.09866666666665,37.83393330574037L218.23466666666667,50.86070890426636L218.50666666666666,59.429881644248965L218.59733333333332,27.072938990592974L219.00533333333334,63.955322456359866L219.18666666666667,61.27434403896332L219.45866666666666,37.95836300849916L219.68533333333332,23.95224459171297L219.95733333333334,57.8557207107544L220.13866666666667,29.47763211727144L220.36533333333335,19.060410928726213L220.68266666666668,24.052219104766863L220.864,52.704736304283145L221.272,9.420217585563677L221.408,42.68479259014131L221.952,37.87038798332216L222.26933333333335,5.1314351081848315L222.40533333333332,23.656989288330095L222.49599999999998,30.500548672676103L222.54133333333334,37.94758362770082L222.72266666666667,37.94758362770082L222.76799999999997,0.5922972679138354L222.81333333333333,22.949061942100542L223.35733333333334,12.70253903865816L223.62933333333334,22.037440371513384L223.67466666666667,40.1965274333954L223.76533333333333,42.11816425323488L223.992,26.372852158546465L224.03733333333332,41.77537782192232L224.17333333333335,5.531651449203508L224.44533333333334,31.582921576499956L224.62666666666667,57.78829653263092L224.944,18.320877504348772L225.39733333333334,10.768138837814348L225.66933333333333,-1.8842866897583121L225.85066666666668,17.714272093772905L225.98666666666665,-2.7345209598541373L226.34933333333333,21.86658294200899L226.44,9.406785798072832L227.02933333333334,8.407740902900713L227.21066666666667,57.57362134456635L227.256,9.75338108539583L228.11733333333333,48.253435564041155L228.16266666666667,48.253435564041155L228.2986666666667,7.723197174072283L228.616,27.95561749935152L228.70666666666665,22.50302262306215L229.06933333333333,23.706515026092546L229.16,43.76018435955049L229.20533333333333,20.35624952316286L229.79466666666667,19.08657426834108L229.88533333333334,21.190431427955644L229.93066666666667,22.57264299392702L230.33866666666665,46.63590247631075L230.47466666666668,29.24315936565401L230.56533333333334,29.24315936565401L230.97333333333333,39.334293675422686L231.10933333333332,17.306384992599504L231.2,27.707882714271562L231.29066666666668,22.604662847518938L231.8346666666667,44.005669903755205L232.60533333333333,17.392662477493303L232.832,23.201751422882097L233.28533333333334,23.166782093048113L233.55733333333333,14.454283905029314L233.87466666666666,30.784844231605547L234.14666666666668,57.79059882164002L234.2373333333333,28.545470309257524L234.41866666666667,45.456016492843645L234.736,25.133085441589373L234.78133333333332,107.55057592391968L234.82666666666665,32.51442558765413L235.28,66.13103861808777L236.00533333333334,29.69944758415224L236.23200000000003,32.46328718662264L236.45866666666666,17.334362578392046L236.68533333333332,11.865662288665789L236.73066666666665,34.173442316055315L236.82133333333334,11.865662288665789L236.95733333333334,12.479354929924028L237.41066666666666,1.8337509155273608L237.592,68.93089790344239L237.63733333333334,68.93089790344239L237.90933333333334,-3.5238878011703605L238.09066666666666,67.90989108085633L238.136,67.90989108085633L238.49866666666668,26.778861355781572L238.63466666666665,24.662548494339006L238.67999999999998,18.4885732650757L238.77066666666667,13.613290619850176L238.90666666666667,1.7020536184311084L238.952,39.67502183914186L238.99733333333336,39.67502183914186L239.04266666666666,-7.015961575508129L239.224,6.452991437912004L239.31466666666668,62.0499608039856L239.45066666666665,35.31716008186342L239.49599999999998,30.567304444313066L239.54133333333334,30.989015889167803L239.58666666666667,30.989015889167803L239.67733333333334,3.6185129404068164L239.81333333333333,64.11364991664887L239.85866666666666,24.63220496177675L240.13066666666668,49.39620907306673L240.40266666666668,37.48510999679567L240.49333333333334,4.418033194541948L240.62933333333334,40.871787738800066L241.17333333333335,42.33170421123506L241.536,50.12675614356995L241.58133333333333,21.934378457069414L241.62666666666667,30.342762303352373L241.89866666666666,23.544113469123857L242.21599999999998,60.00473244190216L242.44266666666667,16.552698326110857L242.76,-1.6943425416946525L242.94133333333332,32.17744262218477L243.34933333333333,15.29377062320711L243.62133333333335,7.3917418241501025L243.71200000000002,7.373450827598589L243.84799999999998,29.562509131431597L244.1653333333333,46.30750269889833L244.43733333333333,24.29438383579256L244.57333333333332,24.733070683479326L244.664,38.8603298187256L244.70933333333332,18.506036710739153L245.11733333333333,17.20698339939119L245.57066666666668,15.936321449279802L245.616,68.03644270896912L245.97866666666667,0.09906632900239742L246.52266666666665,14.008541655540483L246.65866666666668,22.2413786172867L246.79466666666667,52.99512178897858L247.384,97.81693298816681L247.74666666666667,24.520337057113665L248.10933333333332,9.00963563919069L248.15466666666666,9.002718162536638L248.29066666666668,28.21678407192232L248.38133333333334,22.406177949905413L248.42666666666668,-0.28304998874665444L249.06133333333332,44.124423456192034L249.24266666666668,22.794246268272417" style="fill: none;" fill="none"></path></g></g></g></g></g></g><g transform="translate(58, 178)" clip-path="url(#clip_1)"><clipPath id="clip_1"><rect width="272" height="22"></rect></clipPath><g><g><line x1="0" y1="0" x2="0" y2="5" style="visibility: inherit;" fill="rgb(0, 0, 0)" stroke="rgb(204, 204, 204)" stroke-width="1px"></line><line x1="22.666666666666664" y1="0" x2="22.666666666666664" y2="5" style="visibility: inherit;" fill="rgb(0, 0, 0)" stroke="rgb(204, 204, 204)" stroke-width="1px"></line><line x1="45.33333333333333" y1="0" x2="45.33333333333333" y2="5" style="visibility: inherit;" fill="rgb(0, 0, 0)" stroke="rgb(204, 204, 204)" stroke-width="1px"></line><line x1="68" y1="0" x2="68" y2="5" style="visibility: inherit;" fill="rgb(0, 0, 0)" stroke="rgb(204, 204, 204)" stroke-width="1px"></line><line x1="90.66666666666666" y1="0" x2="90.66666666666666" y2="5" style="visibility: inherit;" fill="rgb(0, 0, 0)" stroke="rgb(204, 204, 204)" stroke-width="1px"></line><line x1="113.33333333333334" y1="0" x2="113.33333333333334" y2="5" style="visibility: inherit;" fill="rgb(0, 0, 0)" stroke="rgb(204, 204, 204)" stroke-width="1px"></line><line x1="136" y1="0" x2="136" y2="5" style="visibility: inherit;" fill="rgb(0, 0, 0)" stroke="rgb(204, 204, 204)" stroke-width="1px"></line><line x1="158.66666666666669" y1="0" x2="158.66666666666669" y2="5" style="visibility: inherit;" fill="rgb(0, 0, 0)" stroke="rgb(204, 204, 204)" stroke-width="1px"></line><line x1="181.33333333333331" y1="0" x2="181.33333333333331" y2="5" style="visibility: inherit;" fill="rgb(0, 0, 0)" stroke="rgb(204, 204, 204)" stroke-width="1px"></line><line x1="204" y1="0" x2="204" y2="5" style="visibility: inherit;" fill="rgb(0, 0, 0)" stroke="rgb(204, 204, 204)" stroke-width="1px"></line><line x1="226.66666666666669" y1="0" x2="226.66666666666669" y2="5" style="visibility: inherit;" fill="rgb(0, 0, 0)" stroke="rgb(204, 204, 204)" stroke-width="1px"></line><line x1="249.33333333333331" y1="0" x2="249.33333333333331" y2="5" style="visibility: inherit;" fill="rgb(0, 0, 0)" stroke="rgb(204, 204, 204)" stroke-width="1px"></line><line x1="272" y1="0" x2="272" y2="5" style="visibility: inherit;" fill="rgb(0, 0, 0)" stroke="rgb(204, 204, 204)" stroke-width="1px"></line></g><g transform="translate(0, 8)"><text x="0" y="0" dx="0em" dy="0.95em" style="text-anchor: middle; visibility: hidden; font-family: &quot;Helvetica Neue&quot;, sans-serif; font-size: 12px; font-weight: 200;" fill="rgb(50, 49, 63)" stroke="none" stroke-width="1px">-500</text><text x="22.666666666666664" y="0" dx="0em" dy="0.95em" style="text-anchor: middle; visibility: inherit; font-family: &quot;Helvetica Neue&quot;, sans-serif; font-size: 12px; font-weight: 200;" fill="rgb(50, 49, 63)" stroke="none" stroke-width="1px">0</text><text x="45.33333333333333" y="0" dx="0em" dy="0.95em" style="text-anchor: middle; visibility: hidden; font-family: &quot;Helvetica Neue&quot;, sans-serif; font-size: 12px; font-weight: 200;" fill="rgb(50, 49, 63)" stroke="none" stroke-width="1px">500</text><text x="68" y="0" dx="0em" dy="0.95em" style="text-anchor: middle; visibility: inherit; font-family: &quot;Helvetica Neue&quot;, sans-serif; font-size: 12px; font-weight: 200;" fill="rgb(50, 49, 63)" stroke="none" stroke-width="1px">1k</text><text x="90.66666666666666" y="0" dx="0em" dy="0.95em" style="text-anchor: middle; visibility: hidden; font-family: &quot;Helvetica Neue&quot;, sans-serif; font-size: 12px; font-weight: 200;" fill="rgb(50, 49, 63)" stroke="none" stroke-width="1px">1.5k</text><text x="113.33333333333334" y="0" dx="0em" dy="0.95em" style="text-anchor: middle; visibility: inherit; font-family: &quot;Helvetica Neue&quot;, sans-serif; font-size: 12px; font-weight: 200;" fill="rgb(50, 49, 63)" stroke="none" stroke-width="1px">2k</text><text x="136" y="0" dx="0em" dy="0.95em" style="text-anchor: middle; visibility: hidden; font-family: &quot;Helvetica Neue&quot;, sans-serif; font-size: 12px; font-weight: 200;" fill="rgb(50, 49, 63)" stroke="none" stroke-width="1px">2.5k</text><text x="158.66666666666669" y="0" dx="0em" dy="0.95em" style="text-anchor: middle; visibility: inherit; font-family: &quot;Helvetica Neue&quot;, sans-serif; font-size: 12px; font-weight: 200;" fill="rgb(50, 49, 63)" stroke="none" stroke-width="1px">3k</text><text x="181.33333333333331" y="0" dx="0em" dy="0.95em" style="text-anchor: middle; visibility: hidden; font-family: &quot;Helvetica Neue&quot;, sans-serif; font-size: 12px; font-weight: 200;" fill="rgb(50, 49, 63)" stroke="none" stroke-width="1px">3.5k</text><text x="204" y="0" dx="0em" dy="0.95em" style="text-anchor: middle; visibility: inherit; font-family: &quot;Helvetica Neue&quot;, sans-serif; font-size: 12px; font-weight: 200;" fill="rgb(50, 49, 63)" stroke="none" stroke-width="1px">4k</text><text x="226.66666666666669" y="0" dx="0em" dy="0.95em" style="text-anchor: middle; visibility: hidden; font-family: &quot;Helvetica Neue&quot;, sans-serif; font-size: 12px; font-weight: 200;" fill="rgb(50, 49, 63)" stroke="none" stroke-width="1px">4.5k</text><text x="249.33333333333331" y="0" dx="0em" dy="0.95em" style="text-anchor: middle; visibility: inherit; font-family: &quot;Helvetica Neue&quot;, sans-serif; font-size: 12px; font-weight: 200;" fill="rgb(50, 49, 63)" stroke="none" stroke-width="1px">5k</text><text x="272" y="0" dx="0em" dy="0.95em" style="text-anchor: middle; visibility: hidden; font-family: &quot;Helvetica Neue&quot;, sans-serif; font-size: 12px; font-weight: 200;" fill="rgb(50, 49, 63)" stroke="none" stroke-width="1px">5.5k</text></g><line x1="0" y1="0" x2="272" y2="0" fill="rgb(0, 0, 0)" stroke="rgb(204, 204, 204)" stroke-width="1px"></line></g></g></g></g></svg>