<svg viewBox="0 0 330 200" xmlns="http://www.w3.org/2000/svg"><g><g><g><g><g><line x1="82" y1="178" x2="77" y2="178" style="visibility: inherit;" fill="rgb(0, 0, 0)" stroke="rgb(204, 204, 204)" stroke-width="1px"></line><line x1="82" y1="152.57142857142858" x2="77" y2="152.57142857142858" style="visibility: inherit;" fill="rgb(0, 0, 0)" stroke="rgb(204, 204, 204)" stroke-width="1px"></line><line x1="82" y1="127.14285714285714" x2="77" y2="127.14285714285714" style="visibility: inherit;" fill="rgb(0, 0, 0)" stroke="rgb(204, 204, 204)" stroke-width="1px"></line><line x1="82" y1="101.71428571428572" x2="77" y2="101.71428571428572" style="visibility: inherit;" fill="rgb(0, 0, 0)" stroke="rgb(204, 204, 204)" stroke-width="1px"></line><line x1="82" y1="76.28571428571429" x2="77" y2="76.28571428571429" style="visibility: inherit;" fill="rgb(0, 0, 0)" stroke="rgb(204, 204, 204)" stroke-width="1px"></line><line x1="82" y1="50.85714285714286" x2="77" y2="50.85714285714286" style="visibility: inherit;" fill="rgb(0, 0, 0)" stroke="rgb(204, 204, 204)" stroke-width="1px"></line><line x1="82" y1="25.428571428571445" x2="77" y2="25.428571428571445" style="visibility: inherit;" fill="rgb(0, 0, 0)" stroke="rgb(204, 204, 204)" stroke-width="1px"></line><line x1="82" y1="0" x2="77" y2="0" style="visibility: inherit;" fill="rgb(0, 0, 0)" stroke="rgb(204, 204, 204)" stroke-width="1px"></line></g><g transform="translate(72, 0)"><text x="0" y="178" dx="0em" dy="0.3em" style="text-anchor: end; visibility: hidden; font-family: &quot;Helvetica Neue&quot;, sans-serif; font-size: 12px; font-weight: 200;" fill="rgb(50, 49, 63)" stroke="none" stroke-width="1px">-5e-4</text><text x="0" y="152.57142857142858" dx="0em" dy="0.3em" style="text-anchor: end; visibility: inherit; font-family: &quot;Helvetica Neue&quot;, sans-serif; font-size: 12px; font-weight: 200;" fill="rgb(50, 49, 63)" stroke="none" stroke-width="1px">0</text><text x="0" y="127.14285714285714" dx="0em" dy="0.3em" style="text-anchor: end; visibility: inherit; font-family: &quot;Helvetica Neue&quot;, sans-serif; font-size: 12px; font-weight: 200;" fill="rgb(50, 49, 63)" stroke="none" stroke-width="1px">5e-4</text><text x="0" y="101.71428571428572" dx="0em" dy="0.3em" style="text-anchor: end; visibility: inherit; font-family: &quot;Helvetica Neue&quot;, sans-serif; font-size: 12px; font-weight: 200;" fill="rgb(50, 49, 63)" stroke="none" stroke-width="1px">1e-3</text><text x="0" y="76.28571428571429" dx="0em" dy="0.3em" style="text-anchor: end; visibility: inherit; font-family: &quot;Helvetica Neue&quot;, sans-serif; font-size: 12px; font-weight: 200;" fill="rgb(50, 49, 63)" stroke="none" stroke-width="1px">1.5e-3</text><text x="0" y="50.85714285714286" dx="0em" dy="0.3em" style="text-anchor: end; visibility: inherit; font-family: &quot;Helvetica Neue&quot;, sans-serif; font-size: 12px; font-weight: 200;" fill="rgb(50, 49, 63)" stroke="none" stroke-width="1px">2e-3</text><text x="0" y="25.428571428571445" dx="0em" dy="0.3em" style="text-anchor: end; visibility: inherit; font-family: &quot;Helvetica Neue&quot;, sans-serif; font-size: 12px; font-weight: 200;" fill="rgb(50, 49, 63)" stroke="none" stroke-width="1px">2.5e-3</text><text x="0" y="0" dx="0em" dy="0.3em" style="text-anchor: end; visibility: hidden; font-family: &quot;Helvetica Neue&quot;, sans-serif; font-size: 12px; font-weight: 200;" fill="rgb(50, 49, 63)" stroke="none" stroke-width="1px">3e-3</text></g><line x1="82" y1="0" x2="82" y2="178" fill="rgb(0, 0, 0)" stroke="rgb(204, 204, 204)" stroke-width="1px"></line></g></g><g transform="translate(82, 0)" clip-path="url(#clip_0)"><clipPath id="clip_0"><rect width="248" height="178"></rect></clipPath><g><g><g><line x1="0" y1="0" x2="0" y2="178" fill="rgb(0, 0, 0)" stroke="rgb(60, 60, 60)" stroke-width="1px" opacity="0.25"></line><line x1="20.666666666666664" y1="0" x2="20.666666666666664" y2="178" fill="rgb(0, 0, 0)" stroke="rgb(60, 60, 60)" stroke-width="1px" opacity="0.25"></line><line x1="41.33333333333333" y1="0" x2="41.33333333333333" y2="178" fill="rgb(0, 0, 0)" stroke="rgb(60, 60, 60)" stroke-width="1px" opacity="0.25"></line><line x1="62" y1="0" x2="62" y2="178" fill="rgb(0, 0, 0)" stroke="rgb(60, 60, 60)" stroke-width="1px" opacity="0.25"></line><line x1="82.66666666666666" y1="0" x2="82.66666666666666" y2="178" fill="rgb(0, 0, 0)" stroke="rgb(60, 60, 60)" stroke-width="1px" opacity="0.25"></line><line x1="103.33333333333334" y1="0" x2="103.33333333333334" y2="178" fill="rgb(0, 0, 0)" stroke="rgb(60, 60, 60)" stroke-width="1px" opacity="0.25"></line><line x1="124" y1="0" x2="124" y2="178" fill="rgb(0, 0, 0)" stroke="rgb(60, 60, 60)" stroke-width="1px" opacity="0.25"></line><line x1="144.66666666666669" y1="0" x2="144.66666666666669" y2="178" fill="rgb(0, 0, 0)" stroke="rgb(60, 60, 60)" stroke-width="1px" opacity="0.25"></line><line x1="165.33333333333331" y1="0" x2="165.33333333333331" y2="178" fill="rgb(0, 0, 0)" stroke="rgb(60, 60, 60)" stroke-width="1px" opacity="0.25"></line><line x1="186" y1="0" x2="186" y2="178" fill="rgb(0, 0, 0)" stroke="rgb(60, 60, 60)" stroke-width="1px" opacity="0.25"></line><line x1="206.66666666666669" y1="0" x2="206.66666666666669" y2="178" fill="rgb(0, 0, 0)" stroke="rgb(60, 60, 60)" stroke-width="1px" opacity="0.25"></line><line x1="227.33333333333331" y1="0" x2="227.33333333333331" y2="178" fill="rgb(0, 0, 0)" stroke="rgb(60, 60, 60)" stroke-width="1px" opacity="0.25"></line><line x1="248" y1="0" x2="248" y2="178" fill="rgb(0, 0, 0)" stroke="rgb(60, 60, 60)" stroke-width="1px" opacity="0.25"></line></g><g><line x1="0" y1="178" x2="248" y2="178" fill="rgb(0, 0, 0)" stroke="rgb(60, 60, 60)" stroke-width="1px" opacity="0.25"></line><line x1="0" y1="152.57142857142858" x2="248" y2="152.57142857142858" fill="rgb(0, 0, 0)" stroke="rgb(60, 60, 60)" stroke-width="1px" opacity="0.25"></line><line x1="0" y1="127.14285714285714" x2="248" y2="127.14285714285714" fill="rgb(0, 0, 0)" stroke="rgb(60, 60, 60)" stroke-width="1px" opacity="0.25"></line><line x1="0" y1="101.71428571428572" x2="248" y2="101.71428571428572" fill="rgb(0, 0, 0)" stroke="rgb(60, 60, 60)" stroke-width="1px" opacity="0.25"></line><line x1="0" y1="76.28571428571429" x2="248" y2="76.28571428571429" fill="rgb(0, 0, 0)" stroke="rgb(60, 60, 60)" stroke-width="1px" opacity="0.25"></line><line x1="0" y1="50.85714285714286" x2="248" y2="50.85714285714286" fill="rgb(0, 0, 0)" stroke="rgb(60, 60, 60)" stroke-width="1px" opacity="0.25"></line><line x1="0" y1="25.428571428571445" x2="248" y2="25.428571428571445" fill="rgb(0, 0, 0)" stroke="rgb(60, 60, 60)" stroke-width="1px" opacity="0.25"></line><line x1="0" y1="0" x2="248" y2="0" fill="rgb(0, 0, 0)" stroke="rgb(60, 60, 60)" stroke-width="1px" opacity="0.25"></line></g></g></g><g><g><line x1="0" y1="152.57142857142858" x2="248" y2="152.57142857142858" fill="rgb(0, 0, 0)" stroke="rgb(153, 153, 153)" stroke-width="1.5px"></line></g></g><g><g><line x1="20.666666666666664" y1="0" x2="20.666666666666664" y2="178" fill="rgb(0, 0, 0)" stroke="rgb(153, 153, 153)" stroke-width="1.5px"></line></g></g><g><g><g><g><g><path stroke="rgb(255, 112, 67)" stroke-width="2px" d="M20.997333333333334,90.21719558856317L21.534666666666666,85.1836091696976L21.782666666666668,100.5585446647047L22.444,108.114796358879L22.526666666666667,109.01200498283058L22.650666666666666,109.75422910627853L22.73333333333333,116.63865232092533L22.981333333333332,119.6516266172714L23.10533333333333,123.4786773735305L23.72533333333333,126.33384400788812L23.849333333333334,129.78914836104514L24.056,132.18778889769195L24.386666666666667,134.8145281305957L24.676000000000002,137.2299564492943L25.006666666666668,139.37844113090824L25.130666666666666,139.06825590695797L25.172,140.46401017941315L25.461333333333336,139.09146024597678L25.998666666666665,140.1388471377854L26.535999999999998,141.53174242132343L26.99066666666667,142.37258220200536L27.197333333333333,141.97423708512645L27.32133333333333,141.20288915573997L27.69333333333333,140.42285049362644L27.73466666666667,140.90886651744665L28.148,140.41438263955592L28.354666666666667,141.1537439793072L28.437333333333335,141.18149116406443L28.478666666666665,140.2192114936887L28.644000000000002,139.99720427754244L28.974666666666668,140.16666493272297L29.305333333333333,135.5612981542094L29.346666666666668,136.59119378229414L29.553333333333335,135.25731858809723L30.008,133.89362422536186L30.256,132.94011891124725L30.462666666666667,132.5680116299449L30.586666666666666,129.99398387255644L31.082666666666665,133.4875402003007L31.330666666666666,132.98818418173263L31.537333333333336,129.89594719066216L31.826666666666664,131.6242238997188L31.992,129.35756321576662L32.074666666666666,127.35042645644263L32.86,123.34471691230624L33.06666666666666,116.48207703989468L33.108000000000004,120.54682908604308L33.31466666666667,114.75781130354895L33.52133333333333,114.55292891676349L33.604,110.86481084556064L33.934666666666665,102.95153415397345L33.976,101.99344658921501L34.26533333333333,106.52927072056724L34.43066666666667,111.22167194370223L34.80266666666667,115.05748776417218L35.13333333333333,110.11363316465565L35.79466666666667,112.97911901136538L35.96,112.22791139782262L36.208,104.36604500196886L36.373333333333335,105.94366696321802L36.455999999999996,107.29446589543474L38.192,107.84815428422806L38.233333333333334,97.88124824112195L38.316,101.4581261099372L38.564,98.84321745286252L38.936,99.1634027685595L39.01866666666666,99.49973644656711L39.06,89.45279705886536L39.184,87.51106322889484L39.432,84.28696142753012L39.804,90.07015532669104L39.928000000000004,92.43266545364293L39.96933333333334,86.64829661616105L40.382666666666665,80.04556015644849L41.08533333333333,80.05820371162093L41.168,84.16287372013366L41.74666666666667,66.71329993949671L41.95333333333333,72.73719547821234L42.036,82.71585035710828L42.160000000000004,76.22675620964833L42.49066666666667,82.86589848461321L42.73866666666667,89.24969172061998L42.821333333333335,93.21222035004118L42.94533333333333,72.04878544942606L43.193333333333335,78.75436355135825L43.4,83.44022865820902L43.81333333333333,86.05541924646693L44.06133333333333,92.61711904815151L44.309333333333335,89.38411192593995L44.47466666666667,91.2119198256098L44.72266666666667,93.52237991638545L44.80533333333334,86.78495726116086L44.84666666666667,93.74292586044206L44.92933333333333,90.61721868485981L45.012,86.37532782334084L45.053333333333335,85.5151708121679L45.26,87.00522573363959L45.30133333333333,80.95072870486129L45.67333333333333,84.70476095178736L45.92133333333334,80.817325614365L46.004,79.3631547674141L46.21066666666666,61.97217271446806L46.41733333333334,54.558357473099406L46.5,59.716892279076546L46.996,60.45571775828125L47.285333333333334,63.54310257886958L47.32666666666667,53.818796975618156L47.409333333333336,55.92365752828648L47.492000000000004,44.08267746425818L47.53333333333334,46.192681535898004L47.616,57.30628658656768L48.112,61.62804683735051L48.236000000000004,62.12924386699363L48.40133333333333,59.21250909508301L48.52533333333333,67.07567166435763L48.64933333333333,61.699234143507425L48.81466666666667,63.09818549742137L48.856,68.43593144693519L49.02133333333333,67.9681590511006L49.228,70.89552712801985L49.68266666666667,75.35912297754211L49.848000000000006,71.5049773097683L49.972,68.93217601093119L50.30266666666667,68.39456061593744L50.467999999999996,65.85193503601676L50.592,65.47950435693943L50.63333333333333,66.04771360990271L50.67466666666667,25.45317579742354L50.964,37.662122803735286L51.211999999999996,40.83902705416659L51.29466666666667,48.88731060166691L51.336,48.57620915429084L51.501333333333335,54.99676763738918L51.66666666666667,50.459845227082724L51.832,60.32116205603606L51.873333333333335,67.1824785718811L52.03866666666667,66.85638380244602L52.41066666666667,71.07094530238864L52.576,58.453586795015866L52.617333333333335,60.23688600669587L52.65866666666667,53.655093158323965L52.74133333333334,43.115673459644256L52.78266666666667,54.22948602321989L53.03066666666666,58.26365183189745L53.196,53.18206144292182L53.23733333333333,55.7500944444574L53.32,55.34911722764646L53.40266666666666,54.71734269328503L53.526666666666664,47.849757506695L53.568,42.53594503390866L53.60933333333333,55.77958916442958L53.650666666666666,51.29264705958502L53.77466666666666,51.5680794779844L53.94,53.314172782610086L54.14666666666666,46.17456593428494L54.188,58.07000070571931L54.22933333333334,66.48998986858227L54.477333333333334,54.37582078257917L55.18,61.281595272663964L55.345333333333336,64.63388753887548L55.428000000000004,58.87522082315485L55.63466666666667,61.7153069650022L56.626666666666665,49.23220117475006L56.70933333333333,57.37515040634891L56.916000000000004,61.757274022164694L56.998666666666665,54.38203429957015L57.164,58.95178315562717L57.24666666666667,61.73968754285984L57.57733333333333,51.619571909872334L57.82533333333333,60.253029877193015L57.99066666666667,61.225994454316464L58.279999999999994,55.95637699898583L58.36266666666667,59.62007721702042L58.61066666666667,58.18639053385775L58.693333333333335,60.33512071624796L58.81733333333333,52.92138236894765L58.94133333333333,57.207210097705286L59.272,59.491737910416816L59.31333333333333,68.83719221913675L59.437333333333335,61.92586854450026L59.72666666666667,46.96623409950516L59.85066666666667,53.63794379096362L60.22266666666667,53.291951494754855L60.388,60.50627377116467L60.512,56.07890582645784L60.553333333333335,60.00305252089795L60.925333333333334,60.42410108260442L60.96666666666666,49.701201966413635L61.132,52.71996535406082L61.214666666666666,56.63218700568825L61.256,62.07744900735955L61.42133333333334,63.55331344090861L61.462666666666664,57.75596562024482L61.586666666666666,60.43717077202702L61.628,62.67140104233002L61.958666666666666,60.85883662974237L62.124,60.59983039193418L62.20666666666667,60.44899492999619L62.28933333333333,54.41488218730561L62.33066666666667,61.74323714698018L62.70266666666667,62.15575102840762L62.826666666666675,60.79815097698442L63.15733333333333,58.36814938988401L63.24,65.53117893482705L63.44666666666667,60.81589586312701L63.65333333333333,60.71079703227558L63.942666666666675,57.07044840303976L64.48,48.927274472681404L64.72800000000001,56.941999176395626L64.852,57.01824139746381L64.93466666666666,41.45397685334629L65.10000000000001,48.14090510251222L65.26533333333333,54.545650638390356L65.348,52.16525852828242L65.55466666666666,45.51597000282891L65.596,30.733816421621412L65.63733333333333,36.7146401614024L65.968,36.00457486499033L66.21600000000001,44.6614541328002L66.38133333333333,36.83396689239882L66.42266666666666,36.516503002152035L66.464,30.739925090068255L66.836,19.321252580767776L67.04266666666666,21.015344092961413L67.62133333333334,29.533443239203734L67.70400000000001,32.68337939641188L68.53066666666666,40.95515709348689L68.572,47.542421499958834L68.73733333333334,47.769473461240125L68.77866666666667,51.6458727956377L68.82000000000001,53.71343245783025L69.56400000000001,46.77224298478029L69.77066666666667,41.02955746194456L70.05999999999999,40.71964791565705L70.10133333333333,35.82644914342549L70.34933333333333,42.6184093209026L70.43199999999999,38.86289070299236L70.63866666666667,22.803410129357417L70.72133333333333,26.45534654709462L71.71333333333334,30.66007405320903L71.79599999999999,36.34274291543909L71.87866666666666,40.2797674017047L72.20933333333333,41.24958206391668L72.33333333333334,39.56930605598794L72.664,42.723476134194584L72.788,46.19535298543124L72.91199999999999,44.57869489441123L73.44933333333334,46.80731321602104L73.73866666666667,40.28963334933866L73.98666666666666,37.2783815557313L74.23466666666667,39.712919607690594L74.276,34.26581211005717L74.524,25.568418778349525L74.93733333333333,22.976100020434245L75.14399999999999,37.765049846508845L75.18533333333333,42.70310366294672L75.30933333333333,39.851002354876556L75.55733333333333,29.6636237824016L75.64,30.758040774870096L75.764,35.6930767923929L75.888,38.116942402523705L76.012,32.53032306458198L76.05333333333333,33.083628863662454L76.79733333333333,36.818441165647755L77.41733333333333,42.239999270485356L78.03733333333332,43.06758921418407L78.16133333333333,45.89231543794665L78.20266666666667,43.42193264899956L78.28533333333333,49.475875538427175L78.32666666666667,52.234544223128495L79.19466666666668,38.95137332655858L79.236,21.358168181318604L79.44266666666667,22.784789429451422L79.56666666666668,25.122431684290717L79.732,17.693127390942635L79.81466666666667,29.054323408953337L79.98,15.366302777849484L80.14533333333333,21.897218593528578L80.31066666666666,24.1336201730046L81.34400000000001,32.01874176870007L81.38533333333334,39.48894325422938L81.84,38.78873908872805L82.17066666666666,36.41187440142872L82.212,33.6862838813725L82.336,37.41105371816104L82.41866666666667,31.225371813091982L82.46000000000001,36.690152338499956L82.83200000000001,37.64230601977749L83.12133333333334,33.2831636545896L83.74133333333333,38.73915653799736L83.78266666666666,41.701366200837555L83.90666666666667,32.99115543277318L84.69200000000001,33.32510875808222L84.89866666666667,24.560105964542544L84.94000000000001,32.41264402834517L85.02266666666667,38.12400860983186L85.312,41.360274618356584L85.60133333333333,35.22639594305949L85.64266666666667,24.159353319456073L86.01466666666667,29.87773597791758L86.17999999999999,26.452621898604548L86.26266666666666,28.729745019568753L86.428,26.22493332315679L86.8,34.6015403986691L87.08933333333334,36.501419856024114L87.13066666666667,41.30879417925945L87.33733333333333,46.582948460857494L87.66799999999999,33.72668584347113L88.03999999999999,27.459921981128105L88.08133333333333,30.146633363645833L88.24666666666667,31.963352582767413L88.45333333333333,31.893363203886366L88.57733333333334,34.39706357551225L88.66,33.47988392168682L88.78399999999999,27.399527092880078L88.908,34.56083953840175L89.07333333333334,25.816755068544325L89.404,28.845517995826214L89.73466666666667,30.691986334101642L89.89999999999999,38.4455847521823L90.024,26.357545019098296L90.06533333333334,28.343297948584166L90.31333333333335,32.37931248808039L90.35466666666667,18.35417864708765L90.68533333333333,22.964233587234105L90.85066666666667,34.10813871693088L90.892,29.95287272534148L90.93333333333332,26.046398458908698L91.01599999999999,30.158826374033737L91.14,31.751990952922085L91.42933333333333,34.42044860566992L91.47066666666667,39.83639952931435L91.80133333333333,43.81453264797415L91.84266666666667,41.01542713550751L92.21466666666667,31.116479439781756L92.38,24.55925527868058L92.46266666666668,23.388321570276446L92.58666666666667,32.116672591359105L92.79333333333332,34.71810239724465L92.83466666666668,35.33278469824708L92.91733333333333,38.452817724795295L92.95866666666667,38.9890020118315L93,41.486312106236596L93.20666666666668,44.53765368500714L93.78533333333333,40.52803961995292L94.15733333333333,43.45084540595815L94.40533333333333,44.227441169440766L94.69466666666668,42.446674157116774L94.736,40.620780323918126L95.108,39.483481780101016L95.39733333333334,43.94661363669994L95.76933333333334,38.82210196754281L95.89333333333333,37.859039888478804L96.18266666666666,43.54929347503429L96.26533333333333,49.059068039127766L96.43066666666667,51.21206581496482L96.84400000000001,49.04565636874065L96.88533333333334,45.26102361101664L97.00933333333333,39.41394019887039L97.21600000000001,41.84747360036087L97.38133333333333,46.174958986213056L97.91866666666667,41.76689753453442L98.00133333333333,45.25136002707586L98.04266666666666,33.16457661406494L98.29066666666667,25.04158604061331L98.33200000000001,32.82385685430353L98.37333333333333,34.41321647196676L98.456,34.36850883139118L99.03466666666667,42.161881801220545L99.77866666666667,40.687311778185716L100.02666666666667,41.37721766117784L100.316,35.33282089317768L100.56400000000001,40.01567801290872L100.72933333333333,34.09905267779118L100.812,31.346297767551818L100.89466666666667,30.078283330609167L101.14266666666667,37.55463018131317L101.26666666666667,34.45331391054208L101.34933333333333,33.68976051501261L101.47333333333333,38.30354375924679L101.59733333333334,31.08418485713014L101.72133333333333,34.6701936054684L102.09333333333333,38.99953731185414L102.17599999999999,37.77989796365853L102.672,35.73647840004634L102.71333333333334,37.62244736133752L102.75466666666667,39.12748823163099L103.33333333333334,41.26165845062965L103.49866666666667,36.49583606572298L103.664,41.39000634466876L103.82933333333334,45.54580354031776L103.87066666666666,45.41208821766776L103.99466666666666,44.07337423041875L104.07733333333334,43.82169639241525L104.16,44.34044388551263L104.49066666666667,40.20058652808615L104.57333333333334,32.12605502279743L104.69733333333333,41.42705113492056L104.82133333333334,39.855014686415274L104.94533333333334,46.08192283707518L105.02799999999999,45.797961818223854L105.152,45.21963351676638L105.276,42.39400014049937L105.93733333333333,45.17947594326088L106.22666666666667,47.13425453341583L106.43333333333332,51.997482691066224L106.47466666666666,47.59619633688769L106.51599999999999,48.47440798470734L106.59866666666667,45.59520096647378L106.64,48.804185197569495L106.72266666666667,44.77897371567042L106.80533333333332,49.370008832180815L106.97066666666667,48.01379714925835L107.136,55.078536507874404L107.34266666666667,50.03271624953629L107.42533333333333,44.3214560628206L107.71466666666667,41.90454706342993L107.79733333333333,44.44339253815866L107.83866666666667,47.56579090732998L108.04533333333333,46.82863434266241L108.21066666666667,45.86909381699053L108.41733333333333,46.03570316544514L108.5,48.8277887118482L108.54133333333333,39.2128413266349L108.95466666666667,35.027885999917544L108.996,39.92912408037441L109.16133333333333,35.21640421879519L109.28533333333333,41.083735931689716L109.40933333333334,33.95928486257799L109.45066666666668,29.72771272464317L109.57466666666667,26.944372721353545L109.616,37.67721942417546L109.69866666666667,35.819213934160985L109.90533333333333,37.67079966947077L109.94666666666667,36.09559205364894L110.236,39.78819618027936L110.27733333333333,40.02481302877567L110.44266666666667,43.16260718926662L110.52533333333334,37.64518035882776L110.608,38.98043183095146L110.77333333333333,36.06598078707205L111.18666666666665,41.00947529618651L111.26933333333334,37.568410859267345L111.352,30.953421834368953L111.39333333333333,32.87456686293706L111.55866666666665,27.40960098706347L111.68266666666666,36.3744418576502L112.01333333333334,39.21722984413546L112.17866666666666,38.74992695313787L112.75733333333334,37.87175770585512L112.92266666666666,31.862683550069193L113.00533333333334,27.593206602836403L113.212,29.72194719473967L113.25333333333333,39.031765222604406L113.336,42.73124909852507L113.41866666666667,42.42762297488025L113.46000000000001,40.008596671560696L113.54266666666666,37.79257063177474L113.62533333333333,34.76775072274219L113.66666666666666,30.248826856445078L113.956,33.833365635852175L114.08,27.396029149280196L114.28666666666666,21.70038467651065L114.78266666666666,25.401255274630074L114.94800000000001,28.613629573888062L115.072,30.082993818341066L115.48533333333333,35.837547921877245L115.73333333333333,36.76653752096885L115.77466666666666,35.0542343377891L115.85733333333333,41.79983686540601L115.98133333333334,41.29288665923025L116.10533333333333,41.11982946900446L116.14666666666666,43.82580653387927L116.188,43.132965859027536L116.60133333333333,49.455990509522564L116.64266666666667,51.32855685014715L116.684,54.476721571418295L116.76666666666667,54.126316077153135L117.26266666666666,53.126281554266356L117.30399999999999,58.522257693398046L117.34533333333334,60.346253728438526L117.38666666666667,60.26968248484313L117.71733333333334,64.0102502001057L118.08933333333334,56.3359025956436L118.792,61.875863870231754L119.37066666666666,58.140552129048544L119.536,59.148976879684994L119.57733333333334,54.93133550943389L119.66,59.022040082069864L119.99066666666667,60.35159625641715L120.07333333333334,60.01326655309656L120.23866666666667,57.417048317616434L120.652,60.62584239746086L120.98266666666667,53.00240739605633L121.024,46.691115163299486L121.47866666666667,51.611089231302714L121.80933333333333,45.31972819924613L122.05733333333333,51.10261758406962L122.09866666666667,52.02191541449071L122.18133333333333,55.1950778494556L122.264,61.312256062691844L122.47066666666667,58.64092492357402L123.256,57.53479131885756L123.504,55.20595173407722L123.54533333333333,57.46096637395935L123.95866666666667,63.396203982387334L124.04133333333333,64.91276042931409L124.16533333333334,68.8997733831036L124.20666666666668,63.25122652522565L124.248,68.98687876188744L124.70266666666667,66.33365213839448L124.82666666666665,68.75933997424643L125.07466666666666,66.69517728223578L125.28133333333334,64.68805564628144L125.36399999999999,65.76455040880664L125.44666666666667,65.43018366391887L125.52933333333333,59.423412439686004L125.90133333333334,65.16263878350755L126.06666666666666,65.55261840728343L126.232,66.16518615447286L126.31466666666665,63.53650401051158L126.43866666666668,67.49110111176572L126.81066666666666,67.42050551933261L126.85199999999999,65.66727442262186L127.01733333333333,56.51824088700032L127.26533333333333,52.427959528361356L127.34799999999998,58.31125448742635L127.844,63.04368435269926L127.88533333333335,65.22188344302073L127.92666666666668,61.3281067751448L127.968,57.90090383191418L128.09199999999998,52.21443069443403L128.25733333333332,58.13749743439797L128.50533333333334,56.94867157607851L128.54666666666665,61.26963243184481L128.67066666666668,63.65043897291338L129.00133333333332,60.586064153751224L129.208,64.41385173170968L129.332,61.35694414405643L129.45600000000002,63.56091284368351L129.49733333333333,63.08965376134503L129.74533333333332,64.86047459640811L129.828,56.16233134159978L130.076,55.656421582602874L130.20000000000002,63.808753000154454L130.32399999999998,68.48604199173673L130.36533333333333,64.49368429914932L130.53066666666666,63.04438070943168L131.316,67.97940414724795L131.48133333333334,70.62406869418827L131.564,68.95052719195942L131.77066666666667,71.4643295658886L131.97733333333335,72.0552302278661L132.51466666666667,75.02845284616L132.68,71.93307443667855L132.804,69.79376822813015L133.424,60.0317612750559L133.87866666666667,63.973099409225625L133.92000000000002,62.75533878601587L134.04399999999998,57.371633583429315L134.292,61.428522818641966L134.58133333333333,68.3201541421031L134.62266666666665,70.49438278700649L134.66400000000002,72.4928416446214L134.70533333333333,77.65340473324552L134.74666666666667,76.84748634501015L134.78799999999998,80.5560615401699L135.11866666666666,78.49297565869543L136.06933333333333,64.28583258931351L136.11066666666665,59.08827236276261L136.15200000000002,64.40765435625586L136.44133333333335,66.18929821940903L136.89600000000002,65.3337085464034L136.97866666666667,67.62066496321526L137.47466666666668,69.77633158957141L137.516,70.14030990274792L137.64000000000001,75.49311362728761L137.72266666666667,74.34705390814084L137.764,73.98385802978815L137.84666666666666,77.50032166075675L138.632,69.3594108498966L138.83866666666665,62.09962426358538L138.96266666666668,61.5402277810297L139.08666666666664,66.56780679999791L139.45866666666666,62.5856768809212L139.5,61.72864204283421L139.748,65.6178119302331L139.83066666666664,69.76240619799543L139.87199999999999,70.43106628415622L140.11999999999998,72.41071506211551L140.244,72.39297647244102L140.492,78.76231666914639L140.57466666666664,80.02091128990457L140.65733333333336,81.11615299611496L140.78133333333332,81.78049724476938L141.15333333333334,73.79256181594076L141.35999999999999,72.02430266722129L141.44266666666667,65.08656027305364L141.484,67.32905025493918L141.52533333333332,68.51399523101621L141.98,71.18239227127846L142.39333333333335,71.78771637590906L142.724,73.24180837601031L143.42666666666668,73.42067906680396L143.716,73.53219846212917L143.75733333333332,74.56923991080566L143.88133333333334,78.0057743195096L144.29466666666667,80.8000653930397L144.54266666666666,86.25529412212538L144.708,86.57534707607336L144.91466666666668,84.48646790987407L144.99733333333333,83.20370332129653L145.07999999999998,85.03424914385229L145.16266666666667,86.66532860865998L145.24533333333332,86.21681670336145L145.41066666666669,86.51578816164537L145.452,83.45310321829216L145.576,86.13594260270712L145.82399999999998,86.20233507714204L145.90666666666667,84.59417063174334L146.03066666666666,85.55891958105173L146.36133333333333,82.76862638963426L146.44400000000002,81.51906864719359L146.48533333333333,78.58080814366824L146.52666666666667,78.47520200605541L146.85733333333332,79.45762082304803L147.47733333333335,80.8054826002339L147.56,79.48430173002757L147.64266666666668,81.58630714448039L147.72533333333334,80.86649274962981L147.808,82.37354079805317L148.18,82.39600548113476L148.34533333333331,80.34973137048911L148.8826666666667,81.27914249109276L149.048,81.14965485299116L149.83333333333331,81.4594664488669L150.45333333333335,82.6358829414546L150.49466666666666,81.53237906148419L150.74266666666668,84.66160812825473L150.784,83.82815380055222L150.86666666666665,85.8953172516505L150.99066666666667,77.09259604423721L151.19733333333335,81.86039454098322L151.3213333333333,82.48503579295317L151.36266666666666,74.39794419107456L151.44533333333334,73.43811774162225L152.10666666666665,76.68706147632642L152.39600000000002,76.10075980766082L152.56133333333332,75.19772917548636L152.85066666666665,77.21006712684799L152.89200000000002,76.44440649640563L153.18133333333333,80.7333255248625L153.30533333333332,86.42509663882362L154.29733333333334,77.80340339681469L154.42133333333334,78.2051959067023L154.71066666666667,78.32840903607574L154.83466666666666,76.67528869277426L154.876,80.4639037422745L154.95866666666666,87.52576022551483L155,85.25914357683371L155.28933333333333,89.4385641088277L155.37199999999999,87.39752253999099L155.82666666666665,84.08708689929588L156.03333333333333,83.11597634170715L156.40533333333335,87.37192877659314L156.488,87.14003103414494L156.57066666666665,90.16607369808632L156.736,94.85993765368845L156.85999999999999,91.63380250703108L157.39733333333334,91.09789689201041L157.43866666666668,90.4241907977766L157.48,91.77882629668765L157.728,92.14971000664134L158.05866666666665,86.18155054837618L158.30666666666667,85.18198345391939L158.34799999999998,85.81634004497616L158.38933333333335,87.27033536269704L158.55466666666666,84.5141019807972L158.76133333333334,81.03240699259186L159.05066666666667,85.31817743167223L159.38133333333334,87.72383651199618L159.54666666666665,87.1008846735699L159.71200000000002,88.13225862079199L159.79466666666667,88.04685520664171L160.04266666666666,89.44961462828806L160.16666666666669,89.21775761952247L160.24933333333334,92.89725783188942L160.332,91.55903291914555L160.41466666666668,90.46175781515652L160.53866666666667,93.71682807063002L160.74533333333332,89.32075548228134L161.24133333333333,83.8940828745381L161.448,86.7533045786771L161.65466666666669,86.62952912092456L162.39866666666668,88.31739259135085L162.564,92.73341595131251L162.68800000000002,95.69248130921056L162.89466666666667,95.26758820142982L163.184,93.20560170071393L163.34933333333333,93.10904803962207L163.43200000000002,93.444401997094L163.68,92.19674546206052L163.72133333333335,90.41119506781892L163.96933333333334,92.81642122750097L164.25866666666667,92.71694041728561L164.50666666666666,89.78670046393445L164.63066666666668,91.78670762429172L164.87866666666667,95.13899038660702L165.33333333333331,94.66815280117069L165.416,96.82297839980338L165.70533333333333,93.85025354536494L165.82933333333332,96.41158626257267L165.95333333333335,100.02851511996494L166.036,94.81411288560568L166.24266666666668,92.89092987758698L166.904,92.87399118354486L166.98666666666668,92.1510476049276L167.028,89.18521323723134L167.19333333333333,87.10825470163344L167.23466666666667,75.33837615660937L167.4,77.12743764595672L167.48266666666666,83.51992685555777L167.73066666666668,85.1691592016621L167.772,82.29724065113034L168.06133333333332,81.98319227645666L168.55733333333333,84.18708984964009L168.764,84.8224406289015L168.888,86.79428340680005L169.26,85.39250106887465L169.30133333333333,85.68476276999752L169.54933333333332,91.20980924764453L169.59066666666666,89.17826138477194L170.16933333333336,92.37225803846285L170.33466666666666,94.1564613922621L170.41733333333335,89.87780392080927L170.5,91.37023941089235L170.624,92.51616114537863L170.748,90.47928671261256L171.11999999999998,86.95523137274856L171.368,87.08636380190026L171.45066666666668,89.34576297400294L171.90533333333335,90.65118786586561L171.94666666666666,89.41588424906843L172.19466666666668,91.93143247658179L172.484,96.09478953381895L173.476,94.48203358454836L173.6,93.01377497022443L173.724,96.32963913948734L173.80666666666667,92.31588412291258L174.67466666666667,92.55186583738622L174.79866666666666,93.10241079888996L174.964,95.02000786296125L175.00533333333334,96.72583297593793L175.04666666666665,91.09423673806299L175.29466666666667,95.93817864838009L175.41866666666667,92.52448499269713L175.50133333333332,91.71116223911048L175.8733333333333,95.02375944415829L176.03866666666667,94.16004664880552L176.16266666666667,97.12433068518767L176.36933333333332,93.91096925270526L176.70000000000002,89.25959759825402L176.86533333333333,88.63618744067696L176.948,92.89958688431196L177.03066666666666,93.55828137407954L177.56799999999998,94.62673878501026L177.65066666666667,97.24515217887763L177.77466666666666,95.89675757168669L178.27066666666667,99.63384674018671L178.436,100.2483395767937L178.64266666666668,90.6365033103594L178.72533333333334,86.21952114781101L179.13866666666667,86.73435519194781L179.22133333333335,86.76797391967173L179.304,88.66050770022983L179.84133333333332,88.31928260923787L180.08933333333331,94.012526174183L180.50266666666667,96.39115731440808L180.70933333333335,98.14975111144689L180.99866666666668,98.94848783025309L181.12266666666665,98.82991670889065L181.20533333333333,100.42751810609397L182.03199999999998,101.6045603018871L182.07333333333332,101.67976318509095L182.11466666666666,101.81401923854764L182.3213333333333,101.14671150431158L182.404,101.88650404952145L182.65200000000002,101.76720589968461L182.81733333333332,99.8198741821L183.14800000000002,101.47401754377582L183.18933333333334,99.1931582530313L183.39600000000002,98.92484120936685L183.43733333333333,100.24311351442435L183.60266666666666,98.23402953983002L184.05733333333333,101.32872850853369L184.30533333333332,98.43938474519894L184.55333333333334,92.79720226663918L184.67733333333334,95.35794517018759L185.132,95.25475324279839L185.29733333333334,96.8599506065292L185.46266666666668,98.12337680021926L185.752,98.35934631400391L185.91733333333335,102.52254718584636L186.124,101.48708629200345L186.33066666666664,102.81793433833697L186.496,102.62787457994489L186.53733333333332,103.390458119428L186.61999999999998,98.50267738641271L186.992,95.72053543294503L187.03333333333333,96.4238594430136L187.488,95.63955121650251L187.57066666666665,92.93037672563224L187.612,91.11378585204113L187.90133333333335,89.32732975681135L187.984,91.64787117266228L188.02533333333332,93.13888060613992L188.06666666666666,93.64173892775214L188.10799999999998,91.54849300362528L188.27333333333334,94.84017707132745L188.356,97.30002747021098L189.26533333333333,89.36041360535438L189.38933333333335,90.26194711484253L189.96800000000002,92.77636782496887L190.17466666666667,93.67581681733394L190.216,96.11069001847515L190.29866666666666,94.53114602776344L190.62933333333334,92.23919370460362L190.83599999999998,86.97908663359463L191.12533333333334,91.54345021304809L192.28266666666667,90.59194163666226L192.572,91.90556367138261L193.02666666666667,94.22365904784837L193.23333333333335,97.10128610633288L193.60533333333333,95.65868328050666L193.64666666666668,93.78760971916547L194.06,91.66155074574012L194.10133333333332,95.87577330344187L194.14266666666668,98.72181955420409L194.22533333333334,99.2808201908263L194.308,101.36087167302753L194.39066666666668,102.07477701361613L194.43200000000002,101.87046422855354L194.47333333333333,101.91200028734632L194.55599999999998,99.41310873369875L195.29999999999998,98.72982513489977L195.50666666666666,101.05015439563168L195.71333333333334,102.59392762994027L195.83733333333333,102.22939623174813L195.96133333333333,103.11450085230139L196.168,100.26722157970711L196.62266666666665,101.82168212261817L196.99466666666666,100.5924025806495L197.11866666666666,99.2089761052594L197.16,98.55300169128174L197.53199999999998,100.29601815773886L197.78,102.166155986705L198.4,104.14673875658573L198.44133333333335,102.70658865649696L198.68933333333334,106.20504700876415L198.85466666666665,106.84515046719045L198.97866666666667,109.15621749031098L199.22666666666666,104.9403865173499L199.3093333333333,106.73985762629127L199.68133333333333,102.53558883833458L199.84666666666666,101.82266195074682L200.09466666666665,104.60052072140546L200.30133333333333,101.81236125281569L200.54933333333332,90.40525928560568L200.71466666666666,95.72730220045719L200.92133333333334,98.89214897724779L201.21066666666667,99.32849085401584L201.376,100.36410323716528L201.748,103.31016223961917L201.87199999999999,102.82578043692695L202.368,101.27455525808485L202.65733333333336,101.23590567629273L202.78133333333332,100.09698169949051L202.86399999999998,100.86714824535287L202.90533333333335,101.97306802322866L203.07066666666665,99.27588075879663L203.112,93.38026291260775L203.15333333333334,92.14967538536443L203.64933333333335,96.71036831938112L203.89733333333334,97.99053043457006L203.93866666666668,95.65149894877484L204.02133333333333,96.47624639761108L204.228,100.1868848783172L204.26933333333332,98.55841891274996L204.39333333333335,98.47945058902827L204.64133333333334,100.93648273092762L204.80666666666667,104.73286961679926L205.096,105.9532689832742L205.50933333333333,104.72109658429333L205.75733333333332,104.15084270415902L205.9226666666667,106.91735908359594L206.04666666666665,104.44044297229496L206.37733333333335,104.04373015781873L206.46,105.5957162985309L206.99733333333333,104.2390187295779L207.16266666666667,105.54801209888852L207.204,104.73506904596788L207.98933333333332,106.19247054980556L208.03066666666666,102.72717006757118L208.15466666666669,105.07849478410523L208.44400000000002,106.78840360302921L208.52666666666667,105.3952805496365L208.85733333333332,105.60024823077185L208.94,104.25665509704656L208.98133333333334,104.0247506945189L209.51866666666666,101.6347050101185L209.60133333333332,102.35345481298476L209.64266666666668,101.7732643049927L210.01466666666667,101.84853811766489L210.13866666666667,100.7165290659727L210.22133333333335,100.36597103222927L210.59333333333333,100.87706216884021L210.71733333333333,102.80282194601062L210.79999999999998,101.93744256706933L210.8826666666667,101.13545032291664L211.37866666666667,101.73225422284385L212.08133333333333,103.31959108885471L212.28799999999998,102.82278037239759L212.70133333333334,100.87969382878052L212.94933333333333,103.18939516470034L213.23866666666666,100.78940077611558L213.48666666666668,100.2994942690848L213.56933333333333,103.7028224807808L213.73466666666667,107.02789885383986L214.024,104.54715932182935L214.0653333333333,102.41497177210572L214.10666666666665,103.69529442454684L214.52,102.57122563957437L215.18133333333333,104.09422179242642L215.388,105.07299601870498L215.59466666666665,100.30853876047696L215.80133333333333,101.75183779199529L215.84266666666664,103.52746849936105L215.92533333333336,106.12380314986984L216.04933333333332,105.47263029339236L216.46266666666668,104.58598794107547L216.62800000000001,103.80432546965517L216.66933333333336,100.40346516396782L216.91733333333335,104.07180693862288L217.08266666666665,103.50820838130197L217.124,102.94535818123093L217.45466666666667,102.08906382013862L217.57866666666666,101.63560980467629L217.61999999999998,102.58512699056202L217.70266666666666,103.21536618995898L217.82666666666665,102.7575441746529L217.868,106.36193014610454L217.90933333333334,106.31258565269093L217.95066666666668,101.9505650098978L218.11599999999999,102.50004879392073L218.19866666666667,102.93182529204232L218.32266666666666,104.12339483708287L218.36399999999998,104.0836440824906L218.40533333333335,105.73793511382206L218.44666666666666,107.14771795456438L218.52933333333334,104.6157954568114L218.65333333333334,106.67757940008873L218.69466666666668,104.75738087332826L218.94266666666667,101.33255550373084L219.1906666666667,100.80058262732025L219.27333333333334,103.83401294443401L219.39733333333334,103.10833594204722L219.89333333333335,92.7631468021722L220.224,94.07093673854781L220.26533333333333,96.69467853297215L220.30666666666667,98.4139154635001L220.55466666666666,99.62292275056325L220.844,97.0596193393408L221.05066666666667,99.73310250578129L221.34,100.93147182612421L221.50533333333334,100.66849817955861L221.87733333333335,103.84072907037671L222.12533333333334,101.19771491822225L222.208,99.70080879529239L222.332,100.82621021428396L222.62133333333333,103.65152003138064L222.86933333333332,102.17285299545853L222.99333333333334,96.9285294032495L223.076,91.10429271299122L223.1173333333333,89.80358053296557L223.48933333333332,92.65082186796502L223.90266666666668,91.25041290082802L223.94400000000002,89.63891332266486L224.27466666666666,90.9038769067064L224.77066666666667,93.43716215881646L224.89466666666667,95.73754203240507L225.01866666666666,99.66044563400827L225.55599999999998,96.96331430271782L225.88666666666668,98.39013815431386L226.21733333333333,101.10330682022538L226.25866666666667,102.88866183271686L226.3826666666667,103.39034081461512L226.46533333333335,100.41331611776717L226.50666666666666,101.97410702855657L227.08533333333332,102.77435140704247L227.25066666666666,102.55139972234663" style="fill: none;" fill="none"></path></g></g></g></g><g opacity="0.2"><g><g><g><path stroke="rgb(255, 112, 67)" stroke-width="2px" d="M20.997333333333334,90.21719558856317L21.534666666666666,81.42352011480503L21.782666666666668,120.62297386010843L22.444,121.12546579539776L22.526666666666667,110.83622370340994L22.650666666666666,111.43596956399935L22.73333333333333,133.4336275011301L22.981333333333332,127.39301992207766L23.10533333333333,133.68276723288L23.72533333333333,134.1533770029034L23.849333333333334,139.43923278472255L24.056,138.98372633941472L24.386666666666667,142.33602352666537L24.676000000000002,144.20084748842885L25.006666666666668,145.615129386607L25.130666666666666,138.16393729325915L25.172,144.54633308102245L25.461333333333336,135.06736793049743L25.998666666666665,143.2151083677475L26.535999999999998,145.62824784671622L26.99066666666667,144.84795331382858L27.197333333333333,140.80066710770396L27.32133333333333,138.92915070349616L27.69333333333333,138.12254228323167L27.73466666666667,142.34255463410435L28.148,138.95537874288857L28.354666666666667,143.33564929890315L28.437333333333335,141.26338552377587L28.478666666666665,137.37882047186474L28.644000000000002,139.34185156758343L28.974666666666668,140.6669300092118L29.305333333333333,121.96524262055755L29.346666666666668,139.6317631714046L29.553333333333335,131.31921976631773L30.008,129.86742081878972L30.256,130.12493220916284L30.462666666666667,131.4693693712886L30.586666666666666,122.3941450715065L31.082666666666665,143.8023485452203L31.330666666666666,131.51381790531534L31.537333333333336,120.7659818008542L31.826666666666664,136.72704777241285L31.992,122.66512275433966L32.074666666666666,121.42423750327102L32.86,111.51761395750302L33.06666666666666,96.21969850361347L33.108000000000004,132.54827279690653L33.31466666666667,97.66535487983909L33.52133333333333,113.94800000052368L33.604,99.97539388973799L33.934666666666665,79.58704818998065L33.976,99.16462776277747L34.26533333333333,119.92160174756178L34.43066666666667,125.07630845159292L34.80266666666667,126.38299766289336L35.13333333333333,95.51656206697226L35.79466666666667,121.43966349799717L35.96,110.00991909126085L36.208,81.15334170631L36.373333333333335,110.60170477149742L36.455999999999996,111.2827930775072L38.192,109.48295752012304L38.233333333333334,68.4532691501081L38.316,112.019105319732L38.564,91.12251883000135L38.936,100.1087720548468L39.01866666666666,100.49278489074537L39.06,59.788513666817124L39.184,81.77795980019229L39.432,74.76757786529404L39.804,107.14543531409332L39.928000000000004,99.40814001113176L39.96933333333334,69.56954753186021L40.382666666666665,60.5505240591509L41.08533333333333,80.09553468280606L41.168,96.28219583630562L41.74666666666667,15.192226377981058L41.95333333333333,90.52316372575504L42.036,112.178519106337L42.160000000000004,57.06725689076953L42.49066666666667,102.46842527921712L42.73866666666667,108.09828281562244L42.821333333333335,104.91186021587679L42.94533333333333,9.562280033315943L43.193333333333335,98.55304672143289L43.4,97.27556950705392L43.81333333333333,93.77695035082954L44.06133333333333,111.99099158495665L44.309333333333335,79.83843477070332L44.47466666666667,96.60864907875657L44.72266666666667,100.3441731488066L44.80533333333334,66.89225084441048L44.84666666666667,114.28680943218725L44.92933333333333,81.38835204392672L45.012,73.85085164329836L45.053333333333335,82.97549773965564L45.26,91.40471595632178L45.30133333333333,63.07440743808236L45.67333333333333,95.78880082709449L45.92133333333334,69.3394038868802L46.004,75.06961475685239L46.21066666666666,10.6240952696119L46.41733333333334,32.66855515965395L46.5,74.94782310937133L46.996,62.637151090162135L47.285333333333334,72.65881981594222L47.32666666666667,25.107112052185187L47.409333333333336,62.13840390316078L47.492000000000004,9.121364785092226L47.53333333333334,52.42261450631278L47.616,90.11997422629169L48.112,74.38834291377239L48.236000000000004,63.609062764793634L48.40133333333333,50.60064793058805L48.52533333333333,90.29220304478493L48.64933333333333,45.824930475226466L48.81466666666667,67.22868613526225L48.856,84.19599557455096L49.02133333333333,66.58702869660088L49.228,79.53878386105809L49.68266666666667,88.53819847000497L49.848000000000006,60.125345634562635L49.972,61.33580221555063L50.30266666666667,66.80721397538271L50.467999999999996,58.34465713799L50.592,64.3798770159483L50.63333333333333,67.72539073228836L50.67466666666667,-94.40500501649723L50.964,73.7098833322525L51.211999999999996,50.21905659990651L51.29466666666667,72.6504244751164L51.336,47.6576606120382L51.501333333333335,73.9539106685136L51.66666666666667,37.06426799190896L51.832,89.43738210041609L51.873333333333335,87.44099018190589L52.03866666666667,65.89356643972653L52.41066666666667,83.51472965202161L52.576,21.19996305980854L52.617333333333335,65.50220027991705L52.65866666666667,34.221894511154716L52.74133333333334,11.997307788048488L52.78266666666667,87.04378635915262L53.03066666666666,70.17480542510748L53.196,38.178314326064935L53.23733333333333,63.33238951223237L53.32,54.16520425943392L53.40266666666666,52.85198468076331L53.526666666666664,27.572737212692005L53.568,26.846546151808326L53.60933333333333,94.88236452213356L53.650666666666666,38.04464013342346L53.77466666666666,52.381312744958066L53.94,58.469634041722344L54.14666666666666,25.09438286828143L54.188,93.19209467513221L54.22933333333334,91.35059028225285L54.477333333333334,18.607898619558142L55.18,81.6713721267879L55.345333333333336,74.53176233278853L55.428000000000004,41.87235901824067L55.63466666666667,70.1008577474526L56.626666666666665,12.374967873096466L56.70933333333333,81.41777126012104L56.916000000000004,74.69579710917813L56.998666666666665,32.60612887356962L57.164,72.44428274248328L57.24666666666667,69.97116808540055L57.57733333333333,21.739230495478438L57.82533333333333,85.74391170165369L57.99066666666667,64.09873966819474L58.279999999999994,40.397466962890974L58.36266666666667,70.43740552876677L58.61066666666667,53.953331433768795L58.693333333333335,66.67939520733697L58.81733333333333,31.031807090554935L58.94133333333333,69.86141291739685L59.272,66.2369642981461L59.31333333333333,96.43029249033758L59.437333333333335,41.51970733915056L59.72666666666667,2.796878643333912L59.85066666666667,73.33662813689027L60.22266666666667,52.27038530792508L60.388,81.80705930665135L60.512,43.00679572884525L60.553333333333335,71.58936706930399L60.925333333333334,61.66727608495526L60.96666666666666,18.04110062335218L61.132,61.63307306383338L61.214666666666666,68.18329204033527L61.256,78.15496171585151L61.42133333333334,67.91090526644673L61.462666666666664,40.638895177415435L61.586666666666666,68.35361444151827L61.628,69.26812045701914L61.958666666666666,55.50711482656854L62.124,59.83509655935424L62.20666666666667,60.00364279534135L62.28933333333333,36.59874693517173L62.33066666666667,83.38071206744227L62.70266666666667,63.37372679689102L62.826666666666675,56.78974292001554L63.15733333333333,51.19340162085635L63.24,86.68051913274186L63.44666666666667,46.89369643798898L63.65333333333333,60.40048546450478L63.942666666666675,46.322067272450255L64.48,24.88399018027954L64.72800000000001,80.6060282423028L64.852,57.24335182883911L64.93466666666666,-4.50059079272404L65.10000000000001,67.88452329273734L65.26533333333333,73.45610484906607L65.348,45.136986171560636L65.55466666666666,25.883485700402957L65.596,-12.91151450787271L65.63733333333333,54.373435946447515L65.968,33.908057962145136L66.21600000000001,70.2214889670057L66.38133333333333,13.722769388130729L66.42266666666666,35.57916890723365L66.464,13.684179238975048L66.836,-14.39316783206803L67.04266666666666,26.017266462956172L67.62133333333334,54.68372016506535L67.70400000000001,41.98378378152847L68.53066666666666,65.37815290263721L68.572,66.99177530088596L68.73733333333334,48.43986008209842L68.77866666666667,63.091209960835315L68.82000000000001,59.81804537347385L69.56400000000001,26.27790094379867L69.77066666666667,24.0738812344415L70.05999999999999,39.80461854381221L70.10133333333333,21.378941306046073L70.34933333333333,62.672141544520855L70.43199999999999,27.774462214538033L70.63866666666667,-24.613317097936374L70.72133333333333,37.237941424761516L71.71333333333334,43.07482285584723L71.79599999999999,53.121215801153866L71.87866666666666,51.904104521231986L72.20933333333333,44.11302693613939L72.33333333333334,34.60817491795336L72.664,52.03638146391937L72.788,56.44630953829203L72.91199999999999,39.8054000564984L73.44933333333334,53.38746296401534L73.73866666666667,21.045732715300147L73.98666666666666,28.387452346938005L74.23466666666667,46.90106160300118L74.276,18.182850447084235L74.524,-0.11123663187026978L74.93733333333333,15.322099577103359L75.14399999999999,81.43044715906892L75.18533333333333,57.28304912096688L75.30933333333333,31.429975963064607L75.55733333333333,-0.4153161134038612L75.64,33.98938264591354L75.764,50.264111990375184L75.888,45.27357327512334L76.012,16.035443043070188L76.05333333333333,34.717302507587846L76.79733333333333,47.845732824078624L77.41733333333333,58.24752458397832L78.03733333333332,45.511105767318185L78.16133333333333,54.23251499980688L78.20266666666667,36.12795658835344L78.28533333333333,67.35056067045245L78.32666666666667,60.37970433171306L79.19466666666668,-0.2681075419698402L79.236,-30.586986931306967L79.44266666666667,26.996987343898837L79.56666666666668,32.024482136326185L79.732,-4.242407419851844L79.81466666666667,62.59904050560934L79.98,-25.048524935330676L80.14533333333333,41.18019928250993L80.31066666666666,30.736750528216362L81.34400000000001,55.300108693540096L81.38533333333334,61.5452298537961L81.84,36.72133785699094L82.17066666666666,29.394017004540984L82.212,25.638789341918056L82.336,48.40869430346149L82.41866666666667,12.961718125002733L82.46000000000001,52.82529483841998L82.83200000000001,40.453605624181876L83.12133333333334,20.41249429966723L83.74133333333333,54.84835291707091L83.78266666666666,50.44749512629849L83.90666666666667,7.273655655128607L84.69200000000001,34.31112905059541L84.89866666666667,-1.3191710582801193L84.94000000000001,55.59780582146985L85.02266666666667,54.98720759153366L85.312,50.915573860917775L85.60133333333333,17.11569487409932L85.64266666666667,-8.516855533633901L86.01466666666667,46.76165631732772L86.17999999999999,16.33973566442728L86.26266666666666,35.453108542731826L86.428,18.829303531774457L86.8,59.33405219869954L87.08933333333334,42.11094536845172L87.13066666666667,55.50289939450366L87.33733333333333,62.155253790318966L87.66799999999999,-4.232318801539293L88.03999999999999,8.956868205751704L88.08133333333333,38.07933456024955L88.24666666666667,37.32734173962049L88.45333333333333,31.686714721577516L88.57733333333334,41.78941210359335L88.66,30.771847552486832L88.78399999999999,9.446852977786762L88.908,55.70510988150325L89.07333333333334,-0.0007591566869109556L89.404,37.788150038038L89.73466666666667,36.143811823001926L89.89999999999999,61.338620397661415L90.024,-9.333228422062746L90.06533333333334,34.206370827342795L90.31333333333335,44.295924586909166L90.35466666666667,-23.05599913639682L90.68533333333333,36.57573967533452L90.85066666666667,67.01128943583795L90.892,17.684162465589395L90.93333333333332,14.512262976595338L91.01599999999999,42.301054249916774L91.14,36.455919571220875L91.42933333333333,42.29925440251827L91.47066666666667,55.827369252485894L91.80133333333333,55.56024584812778L91.84266666666667,32.75087449593204L92.21466666666667,1.8891516583306611L92.38,5.198597380093162L92.46266666666668,19.93105880277497L92.58666666666667,57.88773272080081L92.79333333333332,42.39900383991855L92.83466666666668,37.14767670950721L92.91733333333333,47.66493104823999L92.95866666666667,40.57212320715189L93,48.85979289880822L93.20666666666668,53.54695075750351L93.78533333333333,28.689376748033936L94.15733333333333,52.08063165949923L94.40533333333333,46.52039387822151L94.69466666666668,37.188836377646254L94.736,35.229702484394835L95.108,36.125529162585735L95.39733333333334,57.12431915796229L95.76933333333334,23.69162680208683L95.89333333333333,35.01553248507636L96.18266666666666,60.35016078395503L96.26533333333333,65.32705855050258L96.43066666666667,57.56894067089472L96.84400000000001,42.64918262830804L96.88533333333334,34.08663361093829L97.00933333333333,22.15002198198013L97.21600000000001,49.03264929567064L97.38133333333333,58.95215891993472L97.91866666666667,28.751791193016942L98.00133333333333,55.53947655643735L98.04266666666666,-2.522487455180709L98.29066666666667,1.057894505560398L98.33200000000001,55.80154973108854L98.37333333333333,39.10591067905938L98.456,34.236506430166116L99.03466666666667,65.17235456194196L99.77866666666667,36.333541789225166L100.02666666666667,43.41421250147479L100.316,17.486321344971657L100.56400000000001,53.84213757195644L100.72933333333333,16.62980712311608L100.812,23.21859848712171L100.89466666666667,26.33438299702746L101.14266666666667,59.62906139663288L101.26666666666667,25.296463103166644L101.34933333333333,31.435316299753538L101.47333333333333,51.926057923052994L101.59733333333334,9.768528335860793L101.72133333333333,45.25813247902053L102.09333333333333,51.782224065491135L102.17599999999999,34.17882842570543L102.672,29.703140795230865L102.71333333333334,43.19090117194824L102.75466666666667,43.57122550479005L103.33333333333334,47.562943642692915L103.49866666666667,22.424415822540027L103.664,55.840382622821L103.82933333333334,57.81608221679926L103.87066666666666,45.017284478460056L103.99466666666666,40.12072858427251L104.07733333333334,43.078600167163785L104.16,45.87208174062627L104.49066666666667,27.977371326514657L104.57333333333334,8.285442238407484L104.69733333333333,68.88888550549746L104.82133333333334,35.21346833450454L104.94533333333334,64.4672998668892L105.02799999999999,44.95954726849283L105.152,43.51207920376743L105.276,34.05112214812212L105.93733333333333,53.40378592216544L106.22666666666667,52.905873532806126L106.43333333333332,66.35650021582842L106.47466666666666,34.601093939372475L106.51599999999999,51.06738862075977L106.59866666666667,37.094143090503565L106.64,58.27893310519201L106.72266666666667,32.894258391644286L106.80533333333332,62.92535757539528L106.97066666666667,44.009488346321234L107.136,75.9376681319305L107.34266666666667,35.134582917605144L107.42533333333333,27.458565313901232L107.71466666666667,34.768456065229L107.79733333333333,51.93950941413641L107.83866666666667,56.78488806848016L108.04533333333333,44.65212859639101L108.21066666666667,43.03598404356413L108.41733333333333,46.52762879111938L108.5,57.07161441605005L108.54133333333333,10.824044106262079L108.95466666666667,22.671515924589983L108.996,54.400368531367604L109.16133333333333,21.30177284883601L109.28533333333333,58.40743865711349L109.40933333333334,12.923850283026695L109.45066666666668,17.23370328971319L109.57466666666667,18.72636883812291L109.616,69.36669170483947L109.69866666666667,30.3333242067269L109.90533333333333,43.13773462708508L109.94666666666667,31.444682610886446L110.236,50.69086528143713L110.27733333333333,40.72344064073903L110.44266666666667,52.42716148921423L110.52533333333334,21.35459600176131L110.608,42.922854161688264L110.77333333333333,27.46086248755455L111.18666666666665,55.60548477566668L111.26933333333334,27.40843009097236L111.352,11.42220917982715L111.39333333333333,38.54688044531005L111.55866666666665,11.273911227073L111.68266666666666,62.843754625746186L112.01333333333334,47.610758009765846L112.17866666666666,37.37018284414495L112.75733333333334,35.278902260320535L112.92266666666666,14.120476457689506L113.00533333333334,14.987280596579836L113.212,36.00720103723663L113.25333333333333,66.51964690962009L113.336,53.6542311353343L113.41866666666667,41.531145843011984L113.46000000000001,32.866254187056L113.54266666666666,31.249600466872977L113.62533333333333,25.836760714650154L113.66666666666666,16.906391567417558L113.956,44.4169643244573L114.08,8.389347902366097L114.28666666666666,4.8836004031556115L114.78266666666666,36.32833170465062L114.94800000000001,38.0983868922506L115.072,34.42139338595527L115.48533333333333,52.82826695484775L115.73333333333333,39.509443570460604L115.77466666666666,29.9985407495073L115.85733333333333,61.71669492125511L115.98133333333334,39.79608110977071L116.10533333333333,40.60886614450388L116.14666666666666,51.815390990248744L116.188,41.087305842765744L116.60133333333333,68.12515815347433L116.64266666666667,56.85743849618095L116.684,63.77189566940069L116.76666666666667,53.09171961780105L117.26266666666666,50.17361045309477L117.30399999999999,74.4542504836406L117.34533333333334,65.73172818762916L117.38666666666667,60.04360059169787L117.71733333333334,75.05453511433942L118.08933333333334,33.676860459148884L118.792,78.2329827323556L119.37066666666666,47.11178584183966L119.536,62.12642070863929L119.57733333333334,42.47845762968063L119.66,71.1001282866512L119.99066666666667,64.2772028265255L120.07333333333334,59.0143247017903L120.23866666666667,49.7515343970486L120.652,70.10002887036119L120.98266666666667,30.49368824171168L121.024,28.056588294250616L121.47866666666667,66.13765298149416L121.80933333333333,26.744049578905106L122.05733333333333,68.17699849499124L122.09866666666667,54.73620584660344L122.18133333333333,64.56405942620975L122.264,79.37364786224705L122.47066666666667,50.753634959459305L123.256,54.26885533971446L123.504,48.32989177427123L123.54533333333333,64.11905307748489L123.95866666666667,80.92040356142181L124.04133333333333,69.39049823901483L124.16533333333334,80.67170491069555L124.20666666666668,46.573501217578155L124.248,85.9217887254698L124.70266666666667,58.499817008950885L124.82666666666665,75.92135109433107L125.07466666666666,60.600594156022595L125.28133333333334,58.76189018360206L125.36399999999999,68.94297565626246L125.44666666666667,64.44294272150312L125.52933333333333,41.68800491201026L125.90133333333334,82.10810154570001L126.06666666666666,66.70406022135701L126.232,67.97383479933653L126.31466666666665,55.77513815462589L126.43866666666668,79.1673225925437L126.81066666666666,67.21206714957952L126.85199999999999,60.49073833865779L127.01733333333333,29.505086534789626L127.26533333333333,40.35112089237998L127.34799999999998,75.68208980134555L127.844,77.01651087190423L127.88533333333335,71.65316692313978L127.92666666666668,49.831461830862935L127.968,47.78185008253371L128.09199999999998,35.42472542290176L128.25733333333332,75.62576168243375L128.50533333333334,53.43858099835259L128.54666666666665,74.0275682391865L128.67066666666668,70.67993496571269L129.00133333333332,51.53828553748983L129.208,75.71565932354757L129.332,52.331213045333115L129.45600000000002,70.06828287776027L129.49733333333333,61.69822872376868L129.74533333333332,70.08894559953895L129.828,30.480461731553078L130.076,54.162688025406425L130.20000000000002,87.87907540691751L130.32399999999998,82.29606126727802L130.36533333333333,52.70597206056118L130.53066666666666,58.76521161251836L131.316,82.5504022027765L131.48133333333334,78.4326237003718L131.564,64.00928014782923L131.77066666666667,78.8865049545254L131.97733333333335,73.79990530493004L132.51466666666667,83.80709828436375L132.68,62.793755575482336L132.804,63.47731867166502L133.424,31.20876050846917L133.87866666666667,75.61017287256462L133.92000000000002,59.159816313534975L134.04399999999998,41.47587158211641L134.292,73.40676890047533L134.58133333333333,88.66817231848836L134.62266666666665,76.91394325239318L134.66400000000002,78.39342965504953L134.70533333333333,92.89032420835325L134.74666666666667,74.46795655840211L134.78799999999998,91.50588632587876L135.11866666666666,72.40157189007316L136.06933333333333,22.338259969438838L136.11066666666665,43.74211627883571L136.15200000000002,80.11349763348699L136.44133333333335,71.4497249616044L136.89600000000002,62.80752085575037L136.97866666666667,74.37306197253722L137.47466666666668,76.14108641126327L137.516,71.21498104876706L137.64000000000001,91.29763687721321L137.72266666666667,70.96323331445456L137.764,72.91149707670722L137.84666666666666,87.88292376484189L138.632,45.32280857435296L138.83866666666665,40.6646022083504L138.96266666666668,59.88857097285134L139.08666666666664,81.4120816109436L139.45866666666666,50.828162851078176L139.5,59.198187402316506L139.748,77.10085503650564L139.83066666666664,81.99960745498538L139.87199999999999,72.40533143973776L140.11999999999998,78.255765011268L140.244,72.34060205944948L140.492,97.5682341669287L140.57466666666664,83.73699896463327L140.65733333333336,84.3499298915267L140.78133333333332,83.74201959158692L141.15333333333334,50.20762993714639L141.35999999999999,66.80339522021157L141.44266666666667,44.60239597090654L141.484,73.95015703939967L141.52533333333332,72.01262723548072L141.98,79.06101910557065L142.39333333333335,73.57497766507524L142.724,77.53511558579547L143.42666666666668,73.9488071538508L143.716,73.86146719061904L143.75733333333332,77.63117652013898L143.88133333333334,88.15237986615726L144.29466666666667,89.0504030686404L144.54266666666666,102.36223428270647L144.708,87.52032556065491L144.91466666666668,78.31890768398132L144.99733333333333,79.41625214474541L145.07999999999998,90.43906230373042L145.16266666666667,91.48120355020677L145.24533333333332,84.8925542794168L145.41066666666669,87.39852207207254L145.452,74.41031407724533L145.576,94.05721145708647L145.82399999999998,86.398363450276L145.90666666666667,79.84595387003252L146.03066666666666,88.40740758553147L146.36133333333333,74.53009273750442L146.44400000000002,77.82966298077788L146.48533333333333,69.9053907676467L146.52666666666667,78.16339257998126L146.85733333333332,82.35828033408949L147.47733333333335,84.785137728921L147.56,75.58342382471476L147.64266666666668,87.79262352628368L147.72533333333334,78.74119095930033L147.808,86.82320440347705L148.18,82.46233401181442L148.34533333333331,74.30796551810843L148.8826666666667,84.02329311200552L149.048,80.7673336448414L149.83333333333331,82.37420661534581L150.45333333333335,86.1093340085021L150.49466666666666,78.27420752655182L150.74266666666668,93.90087339654565L150.784,81.36732224800758L150.86666666666665,91.99876032663244L150.99066666666667,51.101952795471476L151.19733333333335,95.93764939105937L151.3213333333333,84.32933229580522L151.36266666666666,50.5202468527215L151.44533333333334,70.6041637584567L152.10666666666665,86.27979258235011L152.39600000000002,74.36966357646244L152.56133333333332,72.53146877139807L152.85066666666665,83.15163412157979L152.89200000000002,74.18374052430902L153.18133333333333,93.396655620741L153.30533333333332,103.23044455237687L154.29733333333334,52.34725773760252L154.42133333333334,79.39151608411755L154.71066666666667,78.69220432319813L154.83466666666666,71.79433653290782L154.876,91.65005173427718L154.95866666666666,108.37637996061572L155,78.56680113981876L155.28933333333333,101.778592319893L155.37199999999999,81.37120612923589L155.82666666666665,74.3127966874412L156.03333333333333,80.24870524874756L156.40533333333335,99.93792272465569L156.488,86.45533690920898L156.57066666666665,99.1006739746247L156.736,108.71889565698802L156.85999999999999,82.10841533488461L157.39733333333334,89.51559849509171L157.43866666666668,88.43502695432731L157.48,95.77848130730646L157.728,93.24476981429117L158.05866666666665,68.56014693049448L158.30666666666667,82.23069246751922L158.34799999999998,87.68932175849166L158.38933333333335,91.56335711106658L158.55466666666666,76.3761322721839L158.76133333333334,70.75246171121087L159.05066666666667,97.9722110996289L159.38133333333334,94.82671134599617L159.54666666666665,85.26157628106219L159.71200000000002,91.17746154006039L159.79466666666667,87.7946957190122L160.04266666666666,93.59135884951269L160.16666666666669,88.53318376360195L160.24933333333334,103.76123671978712L160.332,87.60783129930496L160.41466666666668,87.22197717215333L160.53866666666667,103.32764815299639L160.74533333333332,76.34104708901474L161.24133333333333,67.87145663744637L161.448,95.19535443239978L161.65466666666669,86.26407352036664L162.39866666666668,93.30092623723405L162.564,105.77203037776053L162.68800000000002,104.42932645683842L162.89466666666667,94.01306191086769L163.184,87.11744392982551L163.34933333333333,92.82396667663541L163.43200000000002,94.43455775294986L163.68,88.51295324202094L163.72133333333335,85.1392340223704L163.96933333333334,99.91801783336061L164.25866666666667,92.42321644404105L164.50666666666666,81.13496431708336L164.63066666666668,97.69186710566282L164.87866666666667,105.03683711960912L165.33333333333331,93.2779722623527L165.416,103.18525002896786L165.70533333333333,85.07307778937476L165.82933333333332,103.97409827741129L165.95333333333335,110.70774775424174L166.036,79.4182296086635L166.24266666666668,87.21259901991912L166.904,92.8239785177367L166.98666666666668,90.01650668308139L167.028,80.42838211996215L167.19333333333333,80.9758909621409L167.23466666666667,40.58699563039201L167.4,82.4097654425672L167.48266666666666,102.39419341513089L167.73066666666668,90.03863178087133L167.772,73.81770248019271L168.06133333333332,81.05594272751894L168.55733333333333,90.69424987797227L168.764,86.69835775185909L168.888,92.61628560083253L169.26,81.253641754921L169.30133333333333,86.5476856582931L169.54933333333332,107.52289114014378L169.59066666666666,83.17997579755527L170.16933333333336,101.80275408710753L170.33466666666666,99.42444520762989L170.41733333333335,77.24477178177663L170.5,95.77675842706647L170.624,95.89957432981049L170.748,84.46527405934674L171.11999999999998,76.55021422303149L171.368,87.47354136939559L171.45066666666668,96.0167953121875L171.90533333333335,94.50554515527827L171.94666666666666,85.76856487457242L172.19466666666668,99.35876261868647L172.484,108.38738922455481L173.476,89.7202600900616L173.6,88.6786398520427L173.724,106.11995745742959L173.80666666666667,80.46499480519977L174.67466666666667,93.24861817221557L174.79866666666666,94.72793287890298L174.964,100.68184583474483L175.00533333333334,101.76239961385727L175.04666666666665,74.46655930844801L175.29466666666667,110.24025219386178L175.41866666666667,82.44531834923797L175.50133333333332,89.3097705516432L175.8733333333333,104.80443182427969L176.03866666666667,91.60987487754652L176.16266666666667,105.87658434201565L176.36933333333332,84.4232973552176L176.70000000000002,75.52610105329327L176.86533333333333,86.7955258291747L176.948,105.48756864081537L177.03066666666666,95.50312241699015L177.56799999999998,97.78143319594008L177.65066666666667,104.97619883982199L177.77466666666666,91.91552922555378L178.27066666666667,110.66786100449306L178.436,102.06267218132105L178.64266666666668,62.25689188337752L178.72533333333334,73.17807579040527L179.13866666666667,88.25443831831217L179.22133333333335,86.86723553868276L179.304,94.24834459381444L179.84133333333332,87.31179192555803L180.08933333333331,110.82222160111581L180.50266666666667,103.41423028574458L180.70933333333335,103.34212093906743L180.99866666666668,101.30681324111563L181.12266666666665,98.47982727150833L181.20533333333333,105.14454673736223L182.03199999999998,105.0798588009285L182.07333333333332,101.90180489953076L182.11466666666666,102.21041952286448L182.3213333333333,99.17643926133003L182.404,104.07079271067467L182.65200000000002,101.41496986044305L182.81733333333332,94.07024258907353L183.14800000000002,106.35799023615462L183.18933333333334,92.45876343016114L183.39600000000002,98.13261657846826L183.43733333333333,104.1354036799499L183.60266666666666,92.30207013658115L184.05733333333333,110.46604127383658L184.30533333333332,89.9083974281592L184.55333333333334,76.13826822915249L184.67733333333334,102.91871571939971L185.132,94.95007193940026L185.29733333333334,101.59940685438258L185.46266666666668,101.85373002822911L185.752,99.05606262545501L185.91733333333335,114.81468572840095L186.124,98.42981638014317L186.33066666666664,106.74735524984342L186.496,102.06670999686634L186.53733333333332,105.64203876762518L186.61999999999998,84.07116668458495L186.992,87.5060688746827L187.03333333333333,98.50047223163503L187.488,93.32382692715952L187.57066666666665,84.93135164784533L187.612,85.75017564424446L187.90133333333335,84.05269456654787L187.984,98.49943021472012L188.02533333333332,97.5411890915462L188.06666666666666,95.1264629050025L188.10799999999998,85.36803962290287L188.27333333333334,104.55910196687495L188.356,104.56290592066944L189.26533333333333,65.91815448658807L189.38933333333335,92.92378716064351L189.96800000000002,100.20036889399802L190.17466666666667,96.33150218214308L190.216,103.2998215649277L190.29866666666666,89.8674331381917L190.62933333333334,85.47204593622259L190.83599999999998,71.44825666504246L191.12533333333334,105.02004939823279L192.28266666666667,87.78254674907241L192.572,95.78412359207869L193.02666666666667,101.06799598942911L193.23333333333335,105.59767904185823L193.60533333333333,91.39929865247437L193.64666666666668,88.2631356072213L194.06,85.38421456728663L194.10133333333332,108.31855690266406L194.14266666666668,107.1249679704862L194.22533333333334,100.9313082365053L194.308,107.50236755130547L194.39066666666668,104.18263191250819L194.43200000000002,101.26721659834897L194.47333333333333,102.0346383739795L194.55599999999998,92.03495857332435L195.29999999999998,96.71238304674625L195.50666666666666,107.90108703502587L195.71333333333334,107.15202488697001L195.83733333333333,101.15309206396341L195.96133333333333,105.72783346713653L196.168,91.86043258117778L196.62266666666665,106.41133439753737L196.99466666666666,96.96286970376968L197.11866666666666,95.12431374511549L197.16,96.61619186028838L197.53199999999998,105.44239483933364L197.78,107.6878672840872L198.4,109.99454638149058L198.44133333333335,98.45444587085929L198.68933333333334,116.53448728205902L198.85466666666665,108.73510020412505L198.97866666666667,115.97980273248893L199.22666666666666,92.49285396082061L199.3093333333333,112.05292054478612L199.68133333333333,90.12219443278653L199.84666666666666,99.71769600201931L200.09466666666665,112.80234088615647L200.30133333333333,93.58012756492411L200.54933333333332,56.725001698625945L200.71466666666666,111.44100203205433L200.92133333333334,108.23657799804849L201.21066666666667,100.6168204269239L201.376,103.42182043168162L201.748,112.00860522314906L201.87199999999999,101.39560965980803L202.368,96.69445561936924L202.65733333333336,101.12179011266147L202.78133333333332,96.7342298786555L202.86399999999998,103.14111824440104L202.90533333333335,105.23837266383427L203.07066666666665,91.3122487962246L203.112,75.97304342208164L203.15333333333334,88.51628059148788L203.64933333333335,110.1761296700154L203.89733333333334,101.77029762842825L203.93866666666668,88.74534669624907L204.02133333333333,98.91137028804847L204.228,111.14280165731907L204.26933333333332,93.7502605084862L204.39333333333335,98.24629115100419L204.64133333333334,108.19104008270162L204.80666666666667,115.94196449326617L205.096,109.55658252776733L205.50933333333333,101.0830223469862L205.75733333333332,102.46712867862412L205.9226666666667,115.08569005371204L206.04666666666665,97.12717682548931L206.37733333333335,102.87240813246795L206.46,110.17806272980359L206.99733333333333,100.2332753145269L207.16266666666667,109.41290556479778L207.204,102.33479845098087L207.98933333333332,110.4955492982907L208.03066666666666,92.49563069907683L208.15466666666669,112.02094365070974L208.44400000000002,111.83702766522765L208.52666666666667,101.28198837222797L208.85733333333332,106.20542948693037L208.94,100.28960343343871L208.98133333333334,103.34003690523761L209.51866666666666,94.57792980756079L209.60133333333332,104.4756133218429L209.64266666666668,100.06021169839161L210.01466666666667,102.07078925626618L210.13866666666667,97.37419403983014L210.22133333333335,99.33092418951648L210.59333333333333,102.3860941018377L210.71733333333333,108.48876089283398L210.79999999999998,99.38235009248768L210.8826666666667,98.767512748284L211.37866666666667,103.4943590182811L212.08133333333333,108.00631298178008L212.28799999999998,101.35591236768025L212.70133333333334,95.14259640553168L212.94933333333333,110.00894812095379L213.23866666666666,93.70325133630207L213.48666666666668,98.85301142026272L213.56933333333333,113.75138443389109L213.73466666666667,116.84541684069804L214.024,97.22260426091296L214.0653333333333,96.11954054821815L214.10666666666665,107.47553561574647L214.52,99.25233480014971L215.18133333333333,108.59097327930587L215.388,107.96289462356695L215.59466666666665,86.24114914823856L215.80133333333333,106.01327801549009L215.84266666666664,108.77014098316431L215.92533333333336,113.78966079386217L216.04933333333332,103.54999739304185L216.46266666666668,101.96811506684338L216.62800000000001,101.49641295522451L216.66933333333336,90.362189874053L216.91733333333335,114.90283976734749L217.08266666666665,101.84414465672204L217.124,101.28350403319513L217.45466666666667,99.56079548916647L217.57866666666666,100.29675545862743L217.61999999999998,105.38864215995585L217.70266666666666,105.07619101979903L217.82666666666665,101.40579300693103L217.868,117.00412904205066L217.90933333333334,106.16689262273056L217.95066666666668,89.07139734125563L218.11599999999999,104.12243767402002L218.19866666666667,104.20667526870966L218.32266666666666,107.64158633963338L218.36399999999998,103.9662772299988L218.40533333333335,110.62234381107348L218.44666666666666,111.31019930647952L218.52933333333334,97.14011914921659L218.65333333333334,112.7651391061289L218.69466666666668,99.0878619030118L218.94266666666667,91.22052170495903L219.1906666666667,99.22989591317517L219.27333333333334,112.79042577796749L219.39733333333334,100.96572439745069L219.89333333333335,62.21826029036727L220.224,97.932276985475L220.26533333333333,104.44145766512624L220.30666666666667,103.49008142043438L220.55466666666666,103.19260039260345L220.844,89.49128871411085L221.05066666666667,107.62674647942185L221.34,104.4697401355952L221.50533333333334,99.89205029819693L221.87733333333335,113.2069601986025L222.12533333333334,93.39403281680175L222.208,95.28108992640462L222.332,104.14903574782824L222.62133333333333,111.99344269292695L222.86933333333332,97.80698629255807L222.99333333333334,81.44430124759674L223.076,73.90783102278199L223.1173333333333,85.96313785122973L223.48933333333332,101.05749885312149L223.90266666666668,87.1156085591231L223.94400000000002,84.88084935077599L224.27466666666666,94.63876938607012L224.77066666666667,100.9168620929122L224.89466666666667,102.52957272636039L225.01866666666666,111.24308986482876L225.55599999999998,88.99984748661518L225.88666666666668,102.60293426950064L226.21733333333333,109.11412497609854L226.25866666666667,108.16004600003362L226.3826666666667,104.87158270978502L226.46533333333335,91.623444779643L226.50666666666666,106.58245015250785L227.08533333333332,105.13712828739413L227.25066666666666,101.89311945172292" style="fill: none;" fill="none"></path></g></g></g></g></g></g><g transform="translate(82, 178)" clip-path="url(#clip_1)"><clipPath id="clip_1"><rect width="248" height="22"></rect></clipPath><g><g><line x1="0" y1="0" x2="0" y2="5" style="visibility: inherit;" fill="rgb(0, 0, 0)" stroke="rgb(204, 204, 204)" stroke-width="1px"></line><line x1="20.666666666666664" y1="0" x2="20.666666666666664" y2="5" style="visibility: inherit;" fill="rgb(0, 0, 0)" stroke="rgb(204, 204, 204)" stroke-width="1px"></line><line x1="41.33333333333333" y1="0" x2="41.33333333333333" y2="5" style="visibility: inherit;" fill="rgb(0, 0, 0)" stroke="rgb(204, 204, 204)" stroke-width="1px"></line><line x1="62" y1="0" x2="62" y2="5" style="visibility: inherit;" fill="rgb(0, 0, 0)" stroke="rgb(204, 204, 204)" stroke-width="1px"></line><line x1="82.66666666666666" y1="0" x2="82.66666666666666" y2="5" style="visibility: inherit;" fill="rgb(0, 0, 0)" stroke="rgb(204, 204, 204)" stroke-width="1px"></line><line x1="103.33333333333334" y1="0" x2="103.33333333333334" y2="5" style="visibility: inherit;" fill="rgb(0, 0, 0)" stroke="rgb(204, 204, 204)" stroke-width="1px"></line><line x1="124" y1="0" x2="124" y2="5" style="visibility: inherit;" fill="rgb(0, 0, 0)" stroke="rgb(204, 204, 204)" stroke-width="1px"></line><line x1="144.66666666666669" y1="0" x2="144.66666666666669" y2="5" style="visibility: inherit;" fill="rgb(0, 0, 0)" stroke="rgb(204, 204, 204)" stroke-width="1px"></line><line x1="165.33333333333331" y1="0" x2="165.33333333333331" y2="5" style="visibility: inherit;" fill="rgb(0, 0, 0)" stroke="rgb(204, 204, 204)" stroke-width="1px"></line><line x1="186" y1="0" x2="186" y2="5" style="visibility: inherit;" fill="rgb(0, 0, 0)" stroke="rgb(204, 204, 204)" stroke-width="1px"></line><line x1="206.66666666666669" y1="0" x2="206.66666666666669" y2="5" style="visibility: inherit;" fill="rgb(0, 0, 0)" stroke="rgb(204, 204, 204)" stroke-width="1px"></line><line x1="227.33333333333331" y1="0" x2="227.33333333333331" y2="5" style="visibility: inherit;" fill="rgb(0, 0, 0)" stroke="rgb(204, 204, 204)" stroke-width="1px"></line><line x1="248" y1="0" x2="248" y2="5" style="visibility: inherit;" fill="rgb(0, 0, 0)" stroke="rgb(204, 204, 204)" stroke-width="1px"></line></g><g transform="translate(0, 8)"><text x="0" y="0" dx="0em" dy="0.95em" style="text-anchor: middle; visibility: hidden; font-family: &quot;Helvetica Neue&quot;, sans-serif; font-size: 12px; font-weight: 200;" fill="rgb(50, 49, 63)" stroke="none" stroke-width="1px">-500</text><text x="20.666666666666664" y="0" dx="0em" dy="0.95em" style="text-anchor: middle; visibility: inherit; font-family: &quot;Helvetica Neue&quot;, sans-serif; font-size: 12px; font-weight: 200;" fill="rgb(50, 49, 63)" stroke="none" stroke-width="1px">0</text><text x="41.33333333333333" y="0" dx="0em" dy="0.95em" style="text-anchor: middle; visibility: hidden; font-family: &quot;Helvetica Neue&quot;, sans-serif; font-size: 12px; font-weight: 200;" fill="rgb(50, 49, 63)" stroke="none" stroke-width="1px">500</text><text x="62" y="0" dx="0em" dy="0.95em" style="text-anchor: middle; visibility: inherit; font-family: &quot;Helvetica Neue&quot;, sans-serif; font-size: 12px; font-weight: 200;" fill="rgb(50, 49, 63)" stroke="none" stroke-width="1px">1k</text><text x="82.66666666666666" y="0" dx="0em" dy="0.95em" style="text-anchor: middle; visibility: hidden; font-family: &quot;Helvetica Neue&quot;, sans-serif; font-size: 12px; font-weight: 200;" fill="rgb(50, 49, 63)" stroke="none" stroke-width="1px">1.5k</text><text x="103.33333333333334" y="0" dx="0em" dy="0.95em" style="text-anchor: middle; visibility: inherit; font-family: &quot;Helvetica Neue&quot;, sans-serif; font-size: 12px; font-weight: 200;" fill="rgb(50, 49, 63)" stroke="none" stroke-width="1px">2k</text><text x="124" y="0" dx="0em" dy="0.95em" style="text-anchor: middle; visibility: hidden; font-family: &quot;Helvetica Neue&quot;, sans-serif; font-size: 12px; font-weight: 200;" fill="rgb(50, 49, 63)" stroke="none" stroke-width="1px">2.5k</text><text x="144.66666666666669" y="0" dx="0em" dy="0.95em" style="text-anchor: middle; visibility: inherit; font-family: &quot;Helvetica Neue&quot;, sans-serif; font-size: 12px; font-weight: 200;" fill="rgb(50, 49, 63)" stroke="none" stroke-width="1px">3k</text><text x="165.33333333333331" y="0" dx="0em" dy="0.95em" style="text-anchor: middle; visibility: hidden; font-family: &quot;Helvetica Neue&quot;, sans-serif; font-size: 12px; font-weight: 200;" fill="rgb(50, 49, 63)" stroke="none" stroke-width="1px">3.5k</text><text x="186" y="0" dx="0em" dy="0.95em" style="text-anchor: middle; visibility: inherit; font-family: &quot;Helvetica Neue&quot;, sans-serif; font-size: 12px; font-weight: 200;" fill="rgb(50, 49, 63)" stroke="none" stroke-width="1px">4k</text><text x="206.66666666666669" y="0" dx="0em" dy="0.95em" style="text-anchor: middle; visibility: hidden; font-family: &quot;Helvetica Neue&quot;, sans-serif; font-size: 12px; font-weight: 200;" fill="rgb(50, 49, 63)" stroke="none" stroke-width="1px">4.5k</text><text x="227.33333333333331" y="0" dx="0em" dy="0.95em" style="text-anchor: middle; visibility: inherit; font-family: &quot;Helvetica Neue&quot;, sans-serif; font-size: 12px; font-weight: 200;" fill="rgb(50, 49, 63)" stroke="none" stroke-width="1px">5k</text><text x="248" y="0" dx="0em" dy="0.95em" style="text-anchor: middle; visibility: hidden; font-family: &quot;Helvetica Neue&quot;, sans-serif; font-size: 12px; font-weight: 200;" fill="rgb(50, 49, 63)" stroke="none" stroke-width="1px">5.5k</text></g><line x1="0" y1="0" x2="248" y2="0" fill="rgb(0, 0, 0)" stroke="rgb(204, 204, 204)" stroke-width="1px"></line></g></g></g></g></svg>